<?xml version="1.0" encoding="utf-8" standalone="no"?>
<!DOCTYPE svg PUBLIC "-//W3C//DTD SVG 1.1//EN"
  "http://www.w3.org/Graphics/SVG/1.1/DTD/svg11.dtd">
<svg xmlns:xlink="http://www.w3.org/1999/xlink" width="568.8pt" height="280.8pt" viewBox="0 0 568.8 280.8" xmlns="http://www.w3.org/2000/svg" version="1.1">
 <metadata>
  <rdf:RDF xmlns:dc="http://purl.org/dc/elements/1.1/" xmlns:cc="http://creativecommons.org/ns#" xmlns:rdf="http://www.w3.org/1999/02/22-rdf-syntax-ns#">
   <cc:Work>
    <dc:type rdf:resource="http://purl.org/dc/dcmitype/StillImage"/>
    <dc:date>2023-02-22T09:49:58.997677</dc:date>
    <dc:format>image/svg+xml</dc:format>
    <dc:creator>
     <cc:Agent>
      <dc:title>Matplotlib v3.5.1, https://matplotlib.org/</dc:title>
     </cc:Agent>
    </dc:creator>
   </cc:Work>
  </rdf:RDF>
 </metadata>
 <defs>
  <style type="text/css">*{stroke-linejoin: round; stroke-linecap: butt}</style>
 </defs>
 <g id="figure_1">
  <g id="patch_1">
   <path d="M 0 280.8 
L 568.8 280.8 
L 568.8 0 
L 0 0 
L 0 280.8 
z
" style="fill: none"/>
  </g>
  <g id="axes_1">
   <g id="patch_2">
    <path d="M 23.425 260.421875 
L 526.332813 260.421875 
L 526.332813 23.375625 
L 23.425 23.375625 
z
" style="fill: #ffffff"/>
   </g>
   <g id="matplotlib.axis_1">
    <g id="xtick_1">
     <g id="line2d_1">
      <path d="M 48.762435 260.421875 
L 48.762435 23.375625 
" clip-path="url(#p32f7ea1340)" style="fill: none; stroke: #b0b0b0; stroke-width: 0.8; stroke-linecap: square"/>
     </g>
     <g id="line2d_2"/>
     <g id="text_1">
      <!-- 1950 -->
      <g transform="translate(36.037435 271.520312)scale(0.1 -0.1)">
       <defs>
        <path id="DejaVuSans-31" d="M 794 531 
L 1825 531 
L 1825 4091 
L 703 3866 
L 703 4441 
L 1819 4666 
L 2450 4666 
L 2450 531 
L 3481 531 
L 3481 0 
L 794 0 
L 794 531 
z
" transform="scale(0.015625)"/>
        <path id="DejaVuSans-39" d="M 703 97 
L 703 672 
Q 941 559 1184 500 
Q 1428 441 1663 441 
Q 2288 441 2617 861 
Q 2947 1281 2994 2138 
Q 2813 1869 2534 1725 
Q 2256 1581 1919 1581 
Q 1219 1581 811 2004 
Q 403 2428 403 3163 
Q 403 3881 828 4315 
Q 1253 4750 1959 4750 
Q 2769 4750 3195 4129 
Q 3622 3509 3622 2328 
Q 3622 1225 3098 567 
Q 2575 -91 1691 -91 
Q 1453 -91 1209 -44 
Q 966 3 703 97 
z
M 1959 2075 
Q 2384 2075 2632 2365 
Q 2881 2656 2881 3163 
Q 2881 3666 2632 3958 
Q 2384 4250 1959 4250 
Q 1534 4250 1286 3958 
Q 1038 3666 1038 3163 
Q 1038 2656 1286 2365 
Q 1534 2075 1959 2075 
z
" transform="scale(0.015625)"/>
        <path id="DejaVuSans-35" d="M 691 4666 
L 3169 4666 
L 3169 4134 
L 1269 4134 
L 1269 2991 
Q 1406 3038 1543 3061 
Q 1681 3084 1819 3084 
Q 2600 3084 3056 2656 
Q 3513 2228 3513 1497 
Q 3513 744 3044 326 
Q 2575 -91 1722 -91 
Q 1428 -91 1123 -41 
Q 819 9 494 109 
L 494 744 
Q 775 591 1075 516 
Q 1375 441 1709 441 
Q 2250 441 2565 725 
Q 2881 1009 2881 1497 
Q 2881 1984 2565 2268 
Q 2250 2553 1709 2553 
Q 1456 2553 1204 2497 
Q 953 2441 691 2322 
L 691 4666 
z
" transform="scale(0.015625)"/>
        <path id="DejaVuSans-30" d="M 2034 4250 
Q 1547 4250 1301 3770 
Q 1056 3291 1056 2328 
Q 1056 1369 1301 889 
Q 1547 409 2034 409 
Q 2525 409 2770 889 
Q 3016 1369 3016 2328 
Q 3016 3291 2770 3770 
Q 2525 4250 2034 4250 
z
M 2034 4750 
Q 2819 4750 3233 4129 
Q 3647 3509 3647 2328 
Q 3647 1150 3233 529 
Q 2819 -91 2034 -91 
Q 1250 -91 836 529 
Q 422 1150 422 2328 
Q 422 3509 836 4129 
Q 1250 4750 2034 4750 
z
" transform="scale(0.015625)"/>
       </defs>
       <use xlink:href="#DejaVuSans-31"/>
       <use xlink:href="#DejaVuSans-39" x="63.623047"/>
       <use xlink:href="#DejaVuSans-35" x="127.246094"/>
       <use xlink:href="#DejaVuSans-30" x="190.869141"/>
      </g>
     </g>
    </g>
    <g id="xtick_2">
     <g id="line2d_3">
      <path d="M 110.712153 260.421875 
L 110.712153 23.375625 
" clip-path="url(#p32f7ea1340)" style="fill: none; stroke: #b0b0b0; stroke-width: 0.8; stroke-linecap: square"/>
     </g>
     <g id="line2d_4"/>
     <g id="text_2">
      <!-- 1960 -->
      <g transform="translate(97.987153 271.520312)scale(0.1 -0.1)">
       <defs>
        <path id="DejaVuSans-36" d="M 2113 2584 
Q 1688 2584 1439 2293 
Q 1191 2003 1191 1497 
Q 1191 994 1439 701 
Q 1688 409 2113 409 
Q 2538 409 2786 701 
Q 3034 994 3034 1497 
Q 3034 2003 2786 2293 
Q 2538 2584 2113 2584 
z
M 3366 4563 
L 3366 3988 
Q 3128 4100 2886 4159 
Q 2644 4219 2406 4219 
Q 1781 4219 1451 3797 
Q 1122 3375 1075 2522 
Q 1259 2794 1537 2939 
Q 1816 3084 2150 3084 
Q 2853 3084 3261 2657 
Q 3669 2231 3669 1497 
Q 3669 778 3244 343 
Q 2819 -91 2113 -91 
Q 1303 -91 875 529 
Q 447 1150 447 2328 
Q 447 3434 972 4092 
Q 1497 4750 2381 4750 
Q 2619 4750 2861 4703 
Q 3103 4656 3366 4563 
z
" transform="scale(0.015625)"/>
       </defs>
       <use xlink:href="#DejaVuSans-31"/>
       <use xlink:href="#DejaVuSans-39" x="63.623047"/>
       <use xlink:href="#DejaVuSans-36" x="127.246094"/>
       <use xlink:href="#DejaVuSans-30" x="190.869141"/>
      </g>
     </g>
    </g>
    <g id="xtick_3">
     <g id="line2d_5">
      <path d="M 172.661871 260.421875 
L 172.661871 23.375625 
" clip-path="url(#p32f7ea1340)" style="fill: none; stroke: #b0b0b0; stroke-width: 0.8; stroke-linecap: square"/>
     </g>
     <g id="line2d_6"/>
     <g id="text_3">
      <!-- 1970 -->
      <g transform="translate(159.936871 271.520312)scale(0.1 -0.1)">
       <defs>
        <path id="DejaVuSans-37" d="M 525 4666 
L 3525 4666 
L 3525 4397 
L 1831 0 
L 1172 0 
L 2766 4134 
L 525 4134 
L 525 4666 
z
" transform="scale(0.015625)"/>
       </defs>
       <use xlink:href="#DejaVuSans-31"/>
       <use xlink:href="#DejaVuSans-39" x="63.623047"/>
       <use xlink:href="#DejaVuSans-37" x="127.246094"/>
       <use xlink:href="#DejaVuSans-30" x="190.869141"/>
      </g>
     </g>
    </g>
    <g id="xtick_4">
     <g id="line2d_7">
      <path d="M 234.611589 260.421875 
L 234.611589 23.375625 
" clip-path="url(#p32f7ea1340)" style="fill: none; stroke: #b0b0b0; stroke-width: 0.8; stroke-linecap: square"/>
     </g>
     <g id="line2d_8"/>
     <g id="text_4">
      <!-- 1980 -->
      <g transform="translate(221.886589 271.520312)scale(0.1 -0.1)">
       <defs>
        <path id="DejaVuSans-38" d="M 2034 2216 
Q 1584 2216 1326 1975 
Q 1069 1734 1069 1313 
Q 1069 891 1326 650 
Q 1584 409 2034 409 
Q 2484 409 2743 651 
Q 3003 894 3003 1313 
Q 3003 1734 2745 1975 
Q 2488 2216 2034 2216 
z
M 1403 2484 
Q 997 2584 770 2862 
Q 544 3141 544 3541 
Q 544 4100 942 4425 
Q 1341 4750 2034 4750 
Q 2731 4750 3128 4425 
Q 3525 4100 3525 3541 
Q 3525 3141 3298 2862 
Q 3072 2584 2669 2484 
Q 3125 2378 3379 2068 
Q 3634 1759 3634 1313 
Q 3634 634 3220 271 
Q 2806 -91 2034 -91 
Q 1263 -91 848 271 
Q 434 634 434 1313 
Q 434 1759 690 2068 
Q 947 2378 1403 2484 
z
M 1172 3481 
Q 1172 3119 1398 2916 
Q 1625 2713 2034 2713 
Q 2441 2713 2670 2916 
Q 2900 3119 2900 3481 
Q 2900 3844 2670 4047 
Q 2441 4250 2034 4250 
Q 1625 4250 1398 4047 
Q 1172 3844 1172 3481 
z
" transform="scale(0.015625)"/>
       </defs>
       <use xlink:href="#DejaVuSans-31"/>
       <use xlink:href="#DejaVuSans-39" x="63.623047"/>
       <use xlink:href="#DejaVuSans-38" x="127.246094"/>
       <use xlink:href="#DejaVuSans-30" x="190.869141"/>
      </g>
     </g>
    </g>
    <g id="xtick_5">
     <g id="line2d_9">
      <path d="M 296.561308 260.421875 
L 296.561308 23.375625 
" clip-path="url(#p32f7ea1340)" style="fill: none; stroke: #b0b0b0; stroke-width: 0.8; stroke-linecap: square"/>
     </g>
     <g id="line2d_10"/>
     <g id="text_5">
      <!-- 1990 -->
      <g transform="translate(283.836308 271.520312)scale(0.1 -0.1)">
       <use xlink:href="#DejaVuSans-31"/>
       <use xlink:href="#DejaVuSans-39" x="63.623047"/>
       <use xlink:href="#DejaVuSans-39" x="127.246094"/>
       <use xlink:href="#DejaVuSans-30" x="190.869141"/>
      </g>
     </g>
    </g>
    <g id="xtick_6">
     <g id="line2d_11">
      <path d="M 358.511026 260.421875 
L 358.511026 23.375625 
" clip-path="url(#p32f7ea1340)" style="fill: none; stroke: #b0b0b0; stroke-width: 0.8; stroke-linecap: square"/>
     </g>
     <g id="line2d_12"/>
     <g id="text_6">
      <!-- 2000 -->
      <g transform="translate(345.786026 271.520312)scale(0.1 -0.1)">
       <defs>
        <path id="DejaVuSans-32" d="M 1228 531 
L 3431 531 
L 3431 0 
L 469 0 
L 469 531 
Q 828 903 1448 1529 
Q 2069 2156 2228 2338 
Q 2531 2678 2651 2914 
Q 2772 3150 2772 3378 
Q 2772 3750 2511 3984 
Q 2250 4219 1831 4219 
Q 1534 4219 1204 4116 
Q 875 4013 500 3803 
L 500 4441 
Q 881 4594 1212 4672 
Q 1544 4750 1819 4750 
Q 2544 4750 2975 4387 
Q 3406 4025 3406 3419 
Q 3406 3131 3298 2873 
Q 3191 2616 2906 2266 
Q 2828 2175 2409 1742 
Q 1991 1309 1228 531 
z
" transform="scale(0.015625)"/>
       </defs>
       <use xlink:href="#DejaVuSans-32"/>
       <use xlink:href="#DejaVuSans-30" x="63.623047"/>
       <use xlink:href="#DejaVuSans-30" x="127.246094"/>
       <use xlink:href="#DejaVuSans-30" x="190.869141"/>
      </g>
     </g>
    </g>
    <g id="xtick_7">
     <g id="line2d_13">
      <path d="M 420.460744 260.421875 
L 420.460744 23.375625 
" clip-path="url(#p32f7ea1340)" style="fill: none; stroke: #b0b0b0; stroke-width: 0.8; stroke-linecap: square"/>
     </g>
     <g id="line2d_14"/>
     <g id="text_7">
      <!-- 2010 -->
      <g transform="translate(407.735744 271.520312)scale(0.1 -0.1)">
       <use xlink:href="#DejaVuSans-32"/>
       <use xlink:href="#DejaVuSans-30" x="63.623047"/>
       <use xlink:href="#DejaVuSans-31" x="127.246094"/>
       <use xlink:href="#DejaVuSans-30" x="190.869141"/>
      </g>
     </g>
    </g>
    <g id="xtick_8">
     <g id="line2d_15">
      <path d="M 482.410462 260.421875 
L 482.410462 23.375625 
" clip-path="url(#p32f7ea1340)" style="fill: none; stroke: #b0b0b0; stroke-width: 0.8; stroke-linecap: square"/>
     </g>
     <g id="line2d_16"/>
     <g id="text_8">
      <!-- 2020 -->
      <g transform="translate(469.685462 271.520312)scale(0.1 -0.1)">
       <use xlink:href="#DejaVuSans-32"/>
       <use xlink:href="#DejaVuSans-30" x="63.623047"/>
       <use xlink:href="#DejaVuSans-32" x="127.246094"/>
       <use xlink:href="#DejaVuSans-30" x="190.869141"/>
      </g>
     </g>
    </g>
   </g>
   <g id="matplotlib.axis_2">
    <g id="ytick_1">
     <g id="line2d_17">
      <path d="M 23.425 260.421875 
L 526.332813 260.421875 
" clip-path="url(#p32f7ea1340)" style="fill: none; stroke: #b0b0b0; stroke-width: 0.8; stroke-linecap: square"/>
     </g>
     <g id="line2d_18"/>
     <g id="text_9">
      <!-- 0 -->
      <g transform="translate(13.5625 264.221094)scale(0.1 -0.1)">
       <use xlink:href="#DejaVuSans-30"/>
      </g>
     </g>
    </g>
    <g id="ytick_2">
     <g id="line2d_19">
      <path d="M 23.425 211.343976 
L 526.332813 211.343976 
" clip-path="url(#p32f7ea1340)" style="fill: none; stroke: #b0b0b0; stroke-width: 0.8; stroke-linecap: square"/>
     </g>
     <g id="line2d_20"/>
     <g id="text_10">
      <!-- 5 -->
      <g transform="translate(13.5625 215.143195)scale(0.1 -0.1)">
       <use xlink:href="#DejaVuSans-35"/>
      </g>
     </g>
    </g>
    <g id="ytick_3">
     <g id="line2d_21">
      <path d="M 23.425 162.266078 
L 526.332813 162.266078 
" clip-path="url(#p32f7ea1340)" style="fill: none; stroke: #b0b0b0; stroke-width: 0.8; stroke-linecap: square"/>
     </g>
     <g id="line2d_22"/>
     <g id="text_11">
      <!-- 10 -->
      <g transform="translate(7.2 166.065297)scale(0.1 -0.1)">
       <use xlink:href="#DejaVuSans-31"/>
       <use xlink:href="#DejaVuSans-30" x="63.623047"/>
      </g>
     </g>
    </g>
    <g id="ytick_4">
     <g id="line2d_23">
      <path d="M 23.425 113.188179 
L 526.332813 113.188179 
" clip-path="url(#p32f7ea1340)" style="fill: none; stroke: #b0b0b0; stroke-width: 0.8; stroke-linecap: square"/>
     </g>
     <g id="line2d_24"/>
     <g id="text_12">
      <!-- 15 -->
      <g transform="translate(7.2 116.987398)scale(0.1 -0.1)">
       <use xlink:href="#DejaVuSans-31"/>
       <use xlink:href="#DejaVuSans-35" x="63.623047"/>
      </g>
     </g>
    </g>
    <g id="ytick_5">
     <g id="line2d_25">
      <path d="M 23.425 64.110281 
L 526.332813 64.110281 
" clip-path="url(#p32f7ea1340)" style="fill: none; stroke: #b0b0b0; stroke-width: 0.8; stroke-linecap: square"/>
     </g>
     <g id="line2d_26"/>
     <g id="text_13">
      <!-- 20 -->
      <g transform="translate(7.2 67.9095)scale(0.1 -0.1)">
       <use xlink:href="#DejaVuSans-32"/>
       <use xlink:href="#DejaVuSans-30" x="63.623047"/>
      </g>
     </g>
    </g>
   </g>
   <g id="patch_3">
    <path d="M 46.284446 260.421875 
L 51.240423 260.421875 
L 51.240423 191.712817 
L 46.284446 191.712817 
z
" clip-path="url(#p32f7ea1340)" style="fill: #d3d3d3"/>
   </g>
   <g id="patch_4">
    <path d="M 52.479418 260.421875 
L 57.435395 260.421875 
L 57.435395 181.897237 
L 52.479418 181.897237 
z
" clip-path="url(#p32f7ea1340)" style="fill: #d3d3d3"/>
   </g>
   <g id="patch_5">
    <path d="M 58.67439 260.421875 
L 63.630367 260.421875 
L 63.630367 181.897237 
L 58.67439 181.897237 
z
" clip-path="url(#p32f7ea1340)" style="fill: #d3d3d3"/>
   </g>
   <g id="patch_6">
    <path d="M 64.869361 260.421875 
L 69.825339 260.421875 
L 69.825339 172.081658 
L 64.869361 172.081658 
z
" clip-path="url(#p32f7ea1340)" style="fill: #d3d3d3"/>
   </g>
   <g id="patch_7">
    <path d="M 71.064333 260.421875 
L 76.020311 260.421875 
L 76.020311 172.081658 
L 71.064333 172.081658 
z
" clip-path="url(#p32f7ea1340)" style="fill: #d3d3d3"/>
   </g>
   <g id="patch_8">
    <path d="M 77.259305 260.421875 
L 82.215283 260.421875 
L 82.215283 191.712817 
L 77.259305 191.712817 
z
" clip-path="url(#p32f7ea1340)" style="fill: #d3d3d3"/>
   </g>
   <g id="patch_9">
    <path d="M 83.454277 260.421875 
L 88.410254 260.421875 
L 88.410254 181.897237 
L 83.454277 181.897237 
z
" clip-path="url(#p32f7ea1340)" style="fill: #d3d3d3"/>
   </g>
   <g id="patch_10">
    <path d="M 89.649249 260.421875 
L 94.605226 260.421875 
L 94.605226 181.897237 
L 89.649249 181.897237 
z
" clip-path="url(#p32f7ea1340)" style="fill: #d3d3d3"/>
   </g>
   <g id="patch_11">
    <path d="M 95.844221 260.421875 
L 100.800198 260.421875 
L 100.800198 152.450498 
L 95.844221 152.450498 
z
" clip-path="url(#p32f7ea1340)" style="fill: #d3d3d3"/>
   </g>
   <g id="patch_12">
    <path d="M 102.039192 260.421875 
L 106.99517 260.421875 
L 106.99517 172.081658 
L 102.039192 172.081658 
z
" clip-path="url(#p32f7ea1340)" style="fill: #d3d3d3"/>
   </g>
   <g id="patch_13">
    <path d="M 108.234164 260.421875 
L 113.190142 260.421875 
L 113.190142 162.266078 
L 108.234164 162.266078 
z
" clip-path="url(#p32f7ea1340)" style="fill: #d3d3d3"/>
   </g>
   <g id="patch_14">
    <path d="M 114.429136 260.421875 
L 119.385114 260.421875 
L 119.385114 181.897237 
L 114.429136 181.897237 
z
" clip-path="url(#p32f7ea1340)" style="fill: #d3d3d3"/>
   </g>
   <g id="patch_15">
    <path d="M 120.624108 260.421875 
L 125.580085 260.421875 
L 125.580085 172.081658 
L 120.624108 172.081658 
z
" clip-path="url(#p32f7ea1340)" style="fill: #d3d3d3"/>
   </g>
   <g id="patch_16">
    <path d="M 126.81908 260.421875 
L 131.775057 260.421875 
L 131.775057 162.266078 
L 126.81908 162.266078 
z
" clip-path="url(#p32f7ea1340)" style="fill: #d3d3d3"/>
   </g>
   <g id="patch_17">
    <path d="M 133.014052 260.421875 
L 137.970029 260.421875 
L 137.970029 162.266078 
L 133.014052 162.266078 
z
" clip-path="url(#p32f7ea1340)" style="fill: #d3d3d3"/>
   </g>
   <g id="patch_18">
    <path d="M 139.209023 260.421875 
L 144.165001 260.421875 
L 144.165001 162.266078 
L 139.209023 162.266078 
z
" clip-path="url(#p32f7ea1340)" style="fill: #d3d3d3"/>
   </g>
   <g id="patch_19">
    <path d="M 145.403995 260.421875 
L 150.359973 260.421875 
L 150.359973 172.081658 
L 145.403995 172.081658 
z
" clip-path="url(#p32f7ea1340)" style="fill: #d3d3d3"/>
   </g>
   <g id="patch_20">
    <path d="M 151.598967 260.421875 
L 156.554944 260.421875 
L 156.554944 152.450498 
L 151.598967 152.450498 
z
" clip-path="url(#p32f7ea1340)" style="fill: #d3d3d3"/>
   </g>
   <g id="patch_21">
    <path d="M 157.793939 260.421875 
L 162.749916 260.421875 
L 162.749916 142.634918 
L 157.793939 142.634918 
z
" clip-path="url(#p32f7ea1340)" style="fill: #d3d3d3"/>
   </g>
   <g id="patch_22">
    <path d="M 163.988911 260.421875 
L 168.944888 260.421875 
L 168.944888 152.450498 
L 163.988911 152.450498 
z
" clip-path="url(#p32f7ea1340)" style="fill: #d3d3d3"/>
   </g>
   <g id="patch_23">
    <path d="M 170.183882 260.421875 
L 175.13986 260.421875 
L 175.13986 132.819339 
L 170.183882 132.819339 
z
" clip-path="url(#p32f7ea1340)" style="fill: #d3d3d3"/>
   </g>
   <g id="patch_24">
    <path d="M 176.378854 260.421875 
L 181.334832 260.421875 
L 181.334832 152.450498 
L 176.378854 152.450498 
z
" clip-path="url(#p32f7ea1340)" style="fill: #d3d3d3"/>
   </g>
   <g id="patch_25">
    <path d="M 182.573826 260.421875 
L 187.529804 260.421875 
L 187.529804 142.634918 
L 182.573826 142.634918 
z
" clip-path="url(#p32f7ea1340)" style="fill: #d3d3d3"/>
   </g>
   <g id="patch_26">
    <path d="M 188.768798 260.421875 
L 193.724775 260.421875 
L 193.724775 113.188179 
L 188.768798 113.188179 
z
" clip-path="url(#p32f7ea1340)" style="fill: #d3d3d3"/>
   </g>
   <g id="patch_27">
    <path d="M 194.96377 260.421875 
L 199.919747 260.421875 
L 199.919747 113.188179 
L 194.96377 113.188179 
z
" clip-path="url(#p32f7ea1340)" style="fill: #d3d3d3"/>
   </g>
   <g id="patch_28">
    <path d="M 201.158742 260.421875 
L 206.114719 260.421875 
L 206.114719 123.003759 
L 201.158742 123.003759 
z
" clip-path="url(#p32f7ea1340)" style="fill: #d3d3d3"/>
   </g>
   <g id="patch_29">
    <path d="M 207.353713 260.421875 
L 212.309691 260.421875 
L 212.309691 103.3726 
L 207.353713 103.3726 
z
" clip-path="url(#p32f7ea1340)" style="fill: #d3d3d3"/>
   </g>
   <g id="patch_30">
    <path d="M 213.548685 260.421875 
L 218.504663 260.421875 
L 218.504663 93.55702 
L 213.548685 93.55702 
z
" clip-path="url(#p32f7ea1340)" style="fill: #d3d3d3"/>
   </g>
   <g id="patch_31">
    <path d="M 219.743657 260.421875 
L 224.699634 260.421875 
L 224.699634 103.3726 
L 219.743657 103.3726 
z
" clip-path="url(#p32f7ea1340)" style="fill: #d3d3d3"/>
   </g>
   <g id="patch_32">
    <path d="M 225.938629 260.421875 
L 230.894606 260.421875 
L 230.894606 113.188179 
L 225.938629 113.188179 
z
" clip-path="url(#p32f7ea1340)" style="fill: #d3d3d3"/>
   </g>
   <g id="patch_33">
    <path d="M 232.133601 260.421875 
L 237.089578 260.421875 
L 237.089578 123.003759 
L 232.133601 123.003759 
z
" clip-path="url(#p32f7ea1340)" style="fill: #d3d3d3"/>
   </g>
   <g id="patch_34">
    <path d="M 238.328573 260.421875 
L 243.28455 260.421875 
L 243.28455 113.188179 
L 238.328573 113.188179 
z
" clip-path="url(#p32f7ea1340)" style="fill: #d3d3d3"/>
   </g>
   <g id="patch_35">
    <path d="M 244.523544 260.421875 
L 249.479522 260.421875 
L 249.479522 103.3726 
L 244.523544 103.3726 
z
" clip-path="url(#p32f7ea1340)" style="fill: #d3d3d3"/>
   </g>
   <g id="patch_36">
    <path d="M 250.718516 260.421875 
L 255.674494 260.421875 
L 255.674494 113.188179 
L 250.718516 113.188179 
z
" clip-path="url(#p32f7ea1340)" style="fill: #d3d3d3"/>
   </g>
   <g id="patch_37">
    <path d="M 256.913488 260.421875 
L 261.869465 260.421875 
L 261.869465 103.3726 
L 256.913488 103.3726 
z
" clip-path="url(#p32f7ea1340)" style="fill: #d3d3d3"/>
   </g>
   <g id="patch_38">
    <path d="M 263.10846 260.421875 
L 268.064437 260.421875 
L 268.064437 103.3726 
L 263.10846 103.3726 
z
" clip-path="url(#p32f7ea1340)" style="fill: #d3d3d3"/>
   </g>
   <g id="patch_39">
    <path d="M 269.303432 260.421875 
L 274.259409 260.421875 
L 274.259409 103.3726 
L 269.303432 103.3726 
z
" clip-path="url(#p32f7ea1340)" style="fill: #d3d3d3"/>
   </g>
   <g id="patch_40">
    <path d="M 275.498403 260.421875 
L 280.454381 260.421875 
L 280.454381 103.3726 
L 275.498403 103.3726 
z
" clip-path="url(#p32f7ea1340)" style="fill: #d3d3d3"/>
   </g>
   <g id="patch_41">
    <path d="M 281.693375 260.421875 
L 286.649353 260.421875 
L 286.649353 103.3726 
L 281.693375 103.3726 
z
" clip-path="url(#p32f7ea1340)" style="fill: #d3d3d3"/>
   </g>
   <g id="patch_42">
    <path d="M 287.888347 260.421875 
L 292.844325 260.421875 
L 292.844325 103.3726 
L 287.888347 103.3726 
z
" clip-path="url(#p32f7ea1340)" style="fill: #d3d3d3"/>
   </g>
   <g id="patch_43">
    <path d="M 294.083319 260.421875 
L 299.039296 260.421875 
L 299.039296 103.3726 
L 294.083319 103.3726 
z
" clip-path="url(#p32f7ea1340)" style="fill: #d3d3d3"/>
   </g>
   <g id="patch_44">
    <path d="M 300.278291 260.421875 
L 305.234268 260.421875 
L 305.234268 103.3726 
L 300.278291 103.3726 
z
" clip-path="url(#p32f7ea1340)" style="fill: #d3d3d3"/>
   </g>
   <g id="patch_45">
    <path d="M 306.473263 260.421875 
L 311.42924 260.421875 
L 311.42924 103.3726 
L 306.473263 103.3726 
z
" clip-path="url(#p32f7ea1340)" style="fill: #d3d3d3"/>
   </g>
   <g id="patch_46">
    <path d="M 312.668234 260.421875 
L 317.624212 260.421875 
L 317.624212 103.3726 
L 312.668234 103.3726 
z
" clip-path="url(#p32f7ea1340)" style="fill: #d3d3d3"/>
   </g>
   <g id="patch_47">
    <path d="M 318.863206 260.421875 
L 323.819184 260.421875 
L 323.819184 103.3726 
L 318.863206 103.3726 
z
" clip-path="url(#p32f7ea1340)" style="fill: #d3d3d3"/>
   </g>
   <g id="patch_48">
    <path d="M 325.058178 260.421875 
L 330.014155 260.421875 
L 330.014155 93.55702 
L 325.058178 93.55702 
z
" clip-path="url(#p32f7ea1340)" style="fill: #d3d3d3"/>
   </g>
   <g id="patch_49">
    <path d="M 331.25315 260.421875 
L 336.209127 260.421875 
L 336.209127 103.3726 
L 331.25315 103.3726 
z
" clip-path="url(#p32f7ea1340)" style="fill: #d3d3d3"/>
   </g>
   <g id="patch_50">
    <path d="M 337.448122 260.421875 
L 342.404099 260.421875 
L 342.404099 93.55702 
L 337.448122 93.55702 
z
" clip-path="url(#p32f7ea1340)" style="fill: #d3d3d3"/>
   </g>
   <g id="patch_51">
    <path d="M 343.643093 260.421875 
L 348.599071 260.421875 
L 348.599071 103.3726 
L 343.643093 103.3726 
z
" clip-path="url(#p32f7ea1340)" style="fill: #d3d3d3"/>
   </g>
   <g id="patch_52">
    <path d="M 349.838065 260.421875 
L 354.794043 260.421875 
L 354.794043 103.3726 
L 349.838065 103.3726 
z
" clip-path="url(#p32f7ea1340)" style="fill: #d3d3d3"/>
   </g>
   <g id="patch_53">
    <path d="M 356.033037 260.421875 
L 360.989015 260.421875 
L 360.989015 93.55702 
L 356.033037 93.55702 
z
" clip-path="url(#p32f7ea1340)" style="fill: #d3d3d3"/>
   </g>
   <g id="patch_54">
    <path d="M 362.228009 260.421875 
L 367.183986 260.421875 
L 367.183986 93.55702 
L 362.228009 93.55702 
z
" clip-path="url(#p32f7ea1340)" style="fill: #d3d3d3"/>
   </g>
   <g id="patch_55">
    <path d="M 368.422981 260.421875 
L 373.378958 260.421875 
L 373.378958 93.55702 
L 368.422981 93.55702 
z
" clip-path="url(#p32f7ea1340)" style="fill: #d3d3d3"/>
   </g>
   <g id="patch_56">
    <path d="M 374.617953 260.421875 
L 379.57393 260.421875 
L 379.57393 103.3726 
L 374.617953 103.3726 
z
" clip-path="url(#p32f7ea1340)" style="fill: #d3d3d3"/>
   </g>
   <g id="patch_57">
    <path d="M 380.812924 260.421875 
L 385.768902 260.421875 
L 385.768902 83.74144 
L 380.812924 83.74144 
z
" clip-path="url(#p32f7ea1340)" style="fill: #d3d3d3"/>
   </g>
   <g id="patch_58">
    <path d="M 387.007896 260.421875 
L 391.963874 260.421875 
L 391.963874 73.925861 
L 387.007896 73.925861 
z
" clip-path="url(#p32f7ea1340)" style="fill: #d3d3d3"/>
   </g>
   <g id="patch_59">
    <path d="M 393.202868 260.421875 
L 398.158846 260.421875 
L 398.158846 83.74144 
L 393.202868 83.74144 
z
" clip-path="url(#p32f7ea1340)" style="fill: #d3d3d3"/>
   </g>
   <g id="patch_60">
    <path d="M 399.39784 260.421875 
L 404.353817 260.421875 
L 404.353817 93.55702 
L 399.39784 93.55702 
z
" clip-path="url(#p32f7ea1340)" style="fill: #d3d3d3"/>
   </g>
   <g id="patch_61">
    <path d="M 405.592812 260.421875 
L 410.548789 260.421875 
L 410.548789 83.74144 
L 405.592812 83.74144 
z
" clip-path="url(#p32f7ea1340)" style="fill: #d3d3d3"/>
   </g>
   <g id="patch_62">
    <path d="M 411.787784 260.421875 
L 416.743761 260.421875 
L 416.743761 93.55702 
L 411.787784 93.55702 
z
" clip-path="url(#p32f7ea1340)" style="fill: #d3d3d3"/>
   </g>
   <g id="patch_63">
    <path d="M 417.982755 260.421875 
L 422.938733 260.421875 
L 422.938733 73.925861 
L 417.982755 73.925861 
z
" clip-path="url(#p32f7ea1340)" style="fill: #d3d3d3"/>
   </g>
   <g id="patch_64">
    <path d="M 424.177727 260.421875 
L 429.133705 260.421875 
L 429.133705 73.925861 
L 424.177727 73.925861 
z
" clip-path="url(#p32f7ea1340)" style="fill: #d3d3d3"/>
   </g>
   <g id="patch_65">
    <path d="M 430.372699 260.421875 
L 435.328676 260.421875 
L 435.328676 64.110281 
L 430.372699 64.110281 
z
" clip-path="url(#p32f7ea1340)" style="fill: #d3d3d3"/>
   </g>
   <g id="patch_66">
    <path d="M 436.567671 260.421875 
L 441.523648 260.421875 
L 441.523648 73.925861 
L 436.567671 73.925861 
z
" clip-path="url(#p32f7ea1340)" style="fill: #d3d3d3"/>
   </g>
   <g id="patch_67">
    <path d="M 442.762643 260.421875 
L 447.71862 260.421875 
L 447.71862 73.925861 
L 442.762643 73.925861 
z
" clip-path="url(#p32f7ea1340)" style="fill: #d3d3d3"/>
   </g>
   <g id="patch_68">
    <path d="M 448.957614 260.421875 
L 453.913592 260.421875 
L 453.913592 73.925861 
L 448.957614 73.925861 
z
" clip-path="url(#p32f7ea1340)" style="fill: #d3d3d3"/>
   </g>
   <g id="patch_69">
    <path d="M 455.152586 260.421875 
L 460.108564 260.421875 
L 460.108564 54.294701 
L 455.152586 54.294701 
z
" clip-path="url(#p32f7ea1340)" style="fill: #d3d3d3"/>
   </g>
   <g id="patch_70">
    <path d="M 461.347558 260.421875 
L 466.303536 260.421875 
L 466.303536 64.110281 
L 461.347558 64.110281 
z
" clip-path="url(#p32f7ea1340)" style="fill: #d3d3d3"/>
   </g>
   <g id="patch_71">
    <path d="M 467.54253 260.421875 
L 472.498507 260.421875 
L 472.498507 54.294701 
L 467.54253 54.294701 
z
" clip-path="url(#p32f7ea1340)" style="fill: #d3d3d3"/>
   </g>
   <g id="patch_72">
    <path d="M 473.737502 260.421875 
L 478.693479 260.421875 
L 478.693479 54.294701 
L 473.737502 54.294701 
z
" clip-path="url(#p32f7ea1340)" style="fill: #d3d3d3"/>
   </g>
   <g id="patch_73">
    <path d="M 479.932474 260.421875 
L 484.888451 260.421875 
L 484.888451 93.55702 
L 479.932474 93.55702 
z
" clip-path="url(#p32f7ea1340)" style="fill: #d3d3d3"/>
   </g>
   <g id="patch_74">
    <path d="M 486.127445 260.421875 
L 491.083423 260.421875 
L 491.083423 44.479121 
L 486.127445 44.479121 
z
" clip-path="url(#p32f7ea1340)" style="fill: #d3d3d3"/>
   </g>
   <g id="patch_75">
    <path d="M 492.322417 260.421875 
L 497.278395 260.421875 
L 497.278395 44.479121 
L 492.322417 44.479121 
z
" clip-path="url(#p32f7ea1340)" style="fill: #d3d3d3"/>
   </g>
   <g id="patch_76">
    <path d="M 498.517389 260.421875 
L 503.473366 260.421875 
L 503.473366 34.663542 
L 498.517389 34.663542 
z
" clip-path="url(#p32f7ea1340)" style="fill: #d3d3d3"/>
   </g>
   <g id="patch_77">
    <path d="M 23.425 260.421875 
L 23.425 23.375625 
" style="fill: none; stroke: #000000; stroke-width: 0.8; stroke-linejoin: miter; stroke-linecap: square"/>
   </g>
   <g id="patch_78">
    <path d="M 526.332813 260.421875 
L 526.332813 23.375625 
" style="fill: none; stroke: #000000; stroke-width: 0.8; stroke-linejoin: miter; stroke-linecap: square"/>
   </g>
   <g id="patch_79">
    <path d="M 23.425 260.421875 
L 526.332812 260.421875 
" style="fill: none; stroke: #000000; stroke-width: 0.8; stroke-linejoin: miter; stroke-linecap: square"/>
   </g>
   <g id="patch_80">
    <path d="M 23.425 23.375625 
L 526.332812 23.375625 
" style="fill: none; stroke: #000000; stroke-width: 0.8; stroke-linejoin: miter; stroke-linecap: square"/>
   </g>
   <g id="text_14">
    <!-- Proměny seriálu: víc závodů, víc městských okruhů, víc tmy -->
    <g transform="translate(95.257656 17.375625)scale(0.12 -0.12)">
     <defs>
      <path id="DejaVuSans-50" d="M 1259 4147 
L 1259 2394 
L 2053 2394 
Q 2494 2394 2734 2622 
Q 2975 2850 2975 3272 
Q 2975 3691 2734 3919 
Q 2494 4147 2053 4147 
L 1259 4147 
z
M 628 4666 
L 2053 4666 
Q 2838 4666 3239 4311 
Q 3641 3956 3641 3272 
Q 3641 2581 3239 2228 
Q 2838 1875 2053 1875 
L 1259 1875 
L 1259 0 
L 628 0 
L 628 4666 
z
" transform="scale(0.015625)"/>
      <path id="DejaVuSans-72" d="M 2631 2963 
Q 2534 3019 2420 3045 
Q 2306 3072 2169 3072 
Q 1681 3072 1420 2755 
Q 1159 2438 1159 1844 
L 1159 0 
L 581 0 
L 581 3500 
L 1159 3500 
L 1159 2956 
Q 1341 3275 1631 3429 
Q 1922 3584 2338 3584 
Q 2397 3584 2469 3576 
Q 2541 3569 2628 3553 
L 2631 2963 
z
" transform="scale(0.015625)"/>
      <path id="DejaVuSans-6f" d="M 1959 3097 
Q 1497 3097 1228 2736 
Q 959 2375 959 1747 
Q 959 1119 1226 758 
Q 1494 397 1959 397 
Q 2419 397 2687 759 
Q 2956 1122 2956 1747 
Q 2956 2369 2687 2733 
Q 2419 3097 1959 3097 
z
M 1959 3584 
Q 2709 3584 3137 3096 
Q 3566 2609 3566 1747 
Q 3566 888 3137 398 
Q 2709 -91 1959 -91 
Q 1206 -91 779 398 
Q 353 888 353 1747 
Q 353 2609 779 3096 
Q 1206 3584 1959 3584 
z
" transform="scale(0.015625)"/>
      <path id="DejaVuSans-6d" d="M 3328 2828 
Q 3544 3216 3844 3400 
Q 4144 3584 4550 3584 
Q 5097 3584 5394 3201 
Q 5691 2819 5691 2113 
L 5691 0 
L 5113 0 
L 5113 2094 
Q 5113 2597 4934 2840 
Q 4756 3084 4391 3084 
Q 3944 3084 3684 2787 
Q 3425 2491 3425 1978 
L 3425 0 
L 2847 0 
L 2847 2094 
Q 2847 2600 2669 2842 
Q 2491 3084 2119 3084 
Q 1678 3084 1418 2786 
Q 1159 2488 1159 1978 
L 1159 0 
L 581 0 
L 581 3500 
L 1159 3500 
L 1159 2956 
Q 1356 3278 1631 3431 
Q 1906 3584 2284 3584 
Q 2666 3584 2933 3390 
Q 3200 3197 3328 2828 
z
" transform="scale(0.015625)"/>
      <path id="DejaVuSans-11b" d="M 3597 1894 
L 3597 1613 
L 953 1613 
Q 991 1019 1311 708 
Q 1631 397 2203 397 
Q 2534 397 2845 478 
Q 3156 559 3463 722 
L 3463 178 
Q 3153 47 2828 -22 
Q 2503 -91 2169 -91 
Q 1331 -91 842 396 
Q 353 884 353 1716 
Q 353 2575 817 3079 
Q 1281 3584 2069 3584 
Q 2775 3584 3186 3129 
Q 3597 2675 3597 1894 
z
M 3022 2063 
Q 3016 2534 2758 2815 
Q 2500 3097 2075 3097 
Q 1594 3097 1305 2825 
Q 1016 2553 972 2059 
L 3022 2063 
z
M 1833 3944 
L 1067 5119 
L 1502 5119 
L 2064 4353 
L 2627 5119 
L 3061 5119 
L 2295 3944 
L 1833 3944 
z
" transform="scale(0.015625)"/>
      <path id="DejaVuSans-6e" d="M 3513 2113 
L 3513 0 
L 2938 0 
L 2938 2094 
Q 2938 2591 2744 2837 
Q 2550 3084 2163 3084 
Q 1697 3084 1428 2787 
Q 1159 2491 1159 1978 
L 1159 0 
L 581 0 
L 581 3500 
L 1159 3500 
L 1159 2956 
Q 1366 3272 1645 3428 
Q 1925 3584 2291 3584 
Q 2894 3584 3203 3211 
Q 3513 2838 3513 2113 
z
" transform="scale(0.015625)"/>
      <path id="DejaVuSans-79" d="M 2059 -325 
Q 1816 -950 1584 -1140 
Q 1353 -1331 966 -1331 
L 506 -1331 
L 506 -850 
L 844 -850 
Q 1081 -850 1212 -737 
Q 1344 -625 1503 -206 
L 1606 56 
L 191 3500 
L 800 3500 
L 1894 763 
L 2988 3500 
L 3597 3500 
L 2059 -325 
z
" transform="scale(0.015625)"/>
      <path id="DejaVuSans-20" transform="scale(0.015625)"/>
      <path id="DejaVuSans-73" d="M 2834 3397 
L 2834 2853 
Q 2591 2978 2328 3040 
Q 2066 3103 1784 3103 
Q 1356 3103 1142 2972 
Q 928 2841 928 2578 
Q 928 2378 1081 2264 
Q 1234 2150 1697 2047 
L 1894 2003 
Q 2506 1872 2764 1633 
Q 3022 1394 3022 966 
Q 3022 478 2636 193 
Q 2250 -91 1575 -91 
Q 1294 -91 989 -36 
Q 684 19 347 128 
L 347 722 
Q 666 556 975 473 
Q 1284 391 1588 391 
Q 1994 391 2212 530 
Q 2431 669 2431 922 
Q 2431 1156 2273 1281 
Q 2116 1406 1581 1522 
L 1381 1569 
Q 847 1681 609 1914 
Q 372 2147 372 2553 
Q 372 3047 722 3315 
Q 1072 3584 1716 3584 
Q 2034 3584 2315 3537 
Q 2597 3491 2834 3397 
z
" transform="scale(0.015625)"/>
      <path id="DejaVuSans-65" d="M 3597 1894 
L 3597 1613 
L 953 1613 
Q 991 1019 1311 708 
Q 1631 397 2203 397 
Q 2534 397 2845 478 
Q 3156 559 3463 722 
L 3463 178 
Q 3153 47 2828 -22 
Q 2503 -91 2169 -91 
Q 1331 -91 842 396 
Q 353 884 353 1716 
Q 353 2575 817 3079 
Q 1281 3584 2069 3584 
Q 2775 3584 3186 3129 
Q 3597 2675 3597 1894 
z
M 3022 2063 
Q 3016 2534 2758 2815 
Q 2500 3097 2075 3097 
Q 1594 3097 1305 2825 
Q 1016 2553 972 2059 
L 3022 2063 
z
" transform="scale(0.015625)"/>
      <path id="DejaVuSans-69" d="M 603 3500 
L 1178 3500 
L 1178 0 
L 603 0 
L 603 3500 
z
M 603 4863 
L 1178 4863 
L 1178 4134 
L 603 4134 
L 603 4863 
z
" transform="scale(0.015625)"/>
      <path id="DejaVuSans-e1" d="M 2194 1759 
Q 1497 1759 1228 1600 
Q 959 1441 959 1056 
Q 959 750 1161 570 
Q 1363 391 1709 391 
Q 2188 391 2477 730 
Q 2766 1069 2766 1631 
L 2766 1759 
L 2194 1759 
z
M 3341 1997 
L 3341 0 
L 2766 0 
L 2766 531 
Q 2569 213 2275 61 
Q 1981 -91 1556 -91 
Q 1019 -91 701 211 
Q 384 513 384 1019 
Q 384 1609 779 1909 
Q 1175 2209 1959 2209 
L 2766 2209 
L 2766 2266 
Q 2766 2663 2505 2880 
Q 2244 3097 1772 3097 
Q 1472 3097 1187 3025 
Q 903 2953 641 2809 
L 641 3341 
Q 956 3463 1253 3523 
Q 1550 3584 1831 3584 
Q 2591 3584 2966 3190 
Q 3341 2797 3341 1997 
z
M 2290 5119 
L 2912 5119 
L 1894 3944 
L 1415 3944 
L 2290 5119 
z
" transform="scale(0.015625)"/>
      <path id="DejaVuSans-6c" d="M 603 4863 
L 1178 4863 
L 1178 0 
L 603 0 
L 603 4863 
z
" transform="scale(0.015625)"/>
      <path id="DejaVuSans-75" d="M 544 1381 
L 544 3500 
L 1119 3500 
L 1119 1403 
Q 1119 906 1312 657 
Q 1506 409 1894 409 
Q 2359 409 2629 706 
Q 2900 1003 2900 1516 
L 2900 3500 
L 3475 3500 
L 3475 0 
L 2900 0 
L 2900 538 
Q 2691 219 2414 64 
Q 2138 -91 1772 -91 
Q 1169 -91 856 284 
Q 544 659 544 1381 
z
M 1991 3584 
L 1991 3584 
z
" transform="scale(0.015625)"/>
      <path id="DejaVuSans-3a" d="M 750 794 
L 1409 794 
L 1409 0 
L 750 0 
L 750 794 
z
M 750 3309 
L 1409 3309 
L 1409 2516 
L 750 2516 
L 750 3309 
z
" transform="scale(0.015625)"/>
      <path id="DejaVuSans-76" d="M 191 3500 
L 800 3500 
L 1894 563 
L 2988 3500 
L 3597 3500 
L 2284 0 
L 1503 0 
L 191 3500 
z
" transform="scale(0.015625)"/>
      <path id="DejaVuSans-ed" d="M 1322 5119 
L 1944 5119 
L 926 3944 
L 447 3944 
L 1322 5119 
z
M 603 3500 
L 1178 3500 
L 1178 0 
L 603 0 
L 603 3500 
z
M 891 3584 
L 891 3584 
z
" transform="scale(0.015625)"/>
      <path id="DejaVuSans-63" d="M 3122 3366 
L 3122 2828 
Q 2878 2963 2633 3030 
Q 2388 3097 2138 3097 
Q 1578 3097 1268 2742 
Q 959 2388 959 1747 
Q 959 1106 1268 751 
Q 1578 397 2138 397 
Q 2388 397 2633 464 
Q 2878 531 3122 666 
L 3122 134 
Q 2881 22 2623 -34 
Q 2366 -91 2075 -91 
Q 1284 -91 818 406 
Q 353 903 353 1747 
Q 353 2603 823 3093 
Q 1294 3584 2113 3584 
Q 2378 3584 2631 3529 
Q 2884 3475 3122 3366 
z
" transform="scale(0.015625)"/>
      <path id="DejaVuSans-7a" d="M 353 3500 
L 3084 3500 
L 3084 2975 
L 922 459 
L 3084 459 
L 3084 0 
L 275 0 
L 275 525 
L 2438 3041 
L 353 3041 
L 353 3500 
z
" transform="scale(0.015625)"/>
      <path id="DejaVuSans-64" d="M 2906 2969 
L 2906 4863 
L 3481 4863 
L 3481 0 
L 2906 0 
L 2906 525 
Q 2725 213 2448 61 
Q 2172 -91 1784 -91 
Q 1150 -91 751 415 
Q 353 922 353 1747 
Q 353 2572 751 3078 
Q 1150 3584 1784 3584 
Q 2172 3584 2448 3432 
Q 2725 3281 2906 2969 
z
M 947 1747 
Q 947 1113 1208 752 
Q 1469 391 1925 391 
Q 2381 391 2643 752 
Q 2906 1113 2906 1747 
Q 2906 2381 2643 2742 
Q 2381 3103 1925 3103 
Q 1469 3103 1208 2742 
Q 947 2381 947 1747 
z
" transform="scale(0.015625)"/>
      <path id="DejaVuSans-16f" d="M 544 1381 
L 544 3500 
L 1119 3500 
L 1119 1403 
Q 1119 906 1312 657 
Q 1506 409 1894 409 
Q 2359 409 2629 706 
Q 2900 1003 2900 1516 
L 2900 3500 
L 3475 3500 
L 3475 0 
L 2900 0 
L 2900 538 
Q 2691 219 2414 64 
Q 2138 -91 1772 -91 
Q 1169 -91 856 284 
Q 544 659 544 1381 
z
M 1991 3584 
L 1991 3584 
z
M 2459 4571 
Q 2459 4767 2321 4904 
Q 2184 5042 1984 5042 
Q 1781 5042 1645 4906 
Q 1509 4771 1509 4571 
Q 1509 4367 1645 4231 
Q 1781 4096 1984 4096 
Q 2184 4096 2321 4233 
Q 2459 4371 2459 4571 
z
M 2840 4571 
Q 2840 4211 2591 3961 
Q 2343 3711 1984 3711 
Q 1625 3711 1376 3961 
Q 1128 4211 1128 4571 
Q 1128 4930 1376 5178 
Q 1625 5427 1984 5427 
Q 2343 5427 2591 5178 
Q 2840 4930 2840 4571 
z
" transform="scale(0.015625)"/>
      <path id="DejaVuSans-2c" d="M 750 794 
L 1409 794 
L 1409 256 
L 897 -744 
L 494 -744 
L 750 256 
L 750 794 
z
" transform="scale(0.015625)"/>
      <path id="DejaVuSans-74" d="M 1172 4494 
L 1172 3500 
L 2356 3500 
L 2356 3053 
L 1172 3053 
L 1172 1153 
Q 1172 725 1289 603 
Q 1406 481 1766 481 
L 2356 481 
L 2356 0 
L 1766 0 
Q 1100 0 847 248 
Q 594 497 594 1153 
L 594 3053 
L 172 3053 
L 172 3500 
L 594 3500 
L 594 4494 
L 1172 4494 
z
" transform="scale(0.015625)"/>
      <path id="DejaVuSans-6b" d="M 581 4863 
L 1159 4863 
L 1159 1991 
L 2875 3500 
L 3609 3500 
L 1753 1863 
L 3688 0 
L 2938 0 
L 1159 1709 
L 1159 0 
L 581 0 
L 581 4863 
z
" transform="scale(0.015625)"/>
      <path id="DejaVuSans-fd" d="M 2059 -325 
Q 1816 -950 1584 -1140 
Q 1353 -1331 966 -1331 
L 506 -1331 
L 506 -850 
L 844 -850 
Q 1081 -850 1212 -737 
Q 1344 -625 1503 -206 
L 1606 56 
L 191 3500 
L 800 3500 
L 1894 763 
L 2988 3500 
L 3597 3500 
L 2059 -325 
z
M 2330 5119 
L 2952 5119 
L 1934 3944 
L 1455 3944 
L 2330 5119 
z
" transform="scale(0.015625)"/>
      <path id="DejaVuSans-68" d="M 3513 2113 
L 3513 0 
L 2938 0 
L 2938 2094 
Q 2938 2591 2744 2837 
Q 2550 3084 2163 3084 
Q 1697 3084 1428 2787 
Q 1159 2491 1159 1978 
L 1159 0 
L 581 0 
L 581 4863 
L 1159 4863 
L 1159 2956 
Q 1366 3272 1645 3428 
Q 1925 3584 2291 3584 
Q 2894 3584 3203 3211 
Q 3513 2838 3513 2113 
z
" transform="scale(0.015625)"/>
     </defs>
     <use xlink:href="#DejaVuSans-50"/>
     <use xlink:href="#DejaVuSans-72" x="58.552734"/>
     <use xlink:href="#DejaVuSans-6f" x="97.416016"/>
     <use xlink:href="#DejaVuSans-6d" x="158.597656"/>
     <use xlink:href="#DejaVuSans-11b" x="256.009766"/>
     <use xlink:href="#DejaVuSans-6e" x="317.533203"/>
     <use xlink:href="#DejaVuSans-79" x="380.912109"/>
     <use xlink:href="#DejaVuSans-20" x="440.091797"/>
     <use xlink:href="#DejaVuSans-73" x="471.878906"/>
     <use xlink:href="#DejaVuSans-65" x="523.978516"/>
     <use xlink:href="#DejaVuSans-72" x="585.501953"/>
     <use xlink:href="#DejaVuSans-69" x="626.615234"/>
     <use xlink:href="#DejaVuSans-e1" x="654.398438"/>
     <use xlink:href="#DejaVuSans-6c" x="715.677734"/>
     <use xlink:href="#DejaVuSans-75" x="743.460938"/>
     <use xlink:href="#DejaVuSans-3a" x="806.839844"/>
     <use xlink:href="#DejaVuSans-20" x="840.53125"/>
     <use xlink:href="#DejaVuSans-76" x="872.318359"/>
     <use xlink:href="#DejaVuSans-ed" x="931.498047"/>
     <use xlink:href="#DejaVuSans-63" x="959.28125"/>
     <use xlink:href="#DejaVuSans-20" x="1014.261719"/>
     <use xlink:href="#DejaVuSans-7a" x="1046.048828"/>
     <use xlink:href="#DejaVuSans-e1" x="1098.539062"/>
     <use xlink:href="#DejaVuSans-76" x="1159.818359"/>
     <use xlink:href="#DejaVuSans-6f" x="1218.998047"/>
     <use xlink:href="#DejaVuSans-64" x="1280.179688"/>
     <use xlink:href="#DejaVuSans-16f" x="1343.65625"/>
     <use xlink:href="#DejaVuSans-2c" x="1407.035156"/>
     <use xlink:href="#DejaVuSans-20" x="1438.822266"/>
     <use xlink:href="#DejaVuSans-76" x="1470.609375"/>
     <use xlink:href="#DejaVuSans-ed" x="1529.789062"/>
     <use xlink:href="#DejaVuSans-63" x="1557.572266"/>
     <use xlink:href="#DejaVuSans-20" x="1612.552734"/>
     <use xlink:href="#DejaVuSans-6d" x="1644.339844"/>
     <use xlink:href="#DejaVuSans-11b" x="1741.751953"/>
     <use xlink:href="#DejaVuSans-73" x="1803.275391"/>
     <use xlink:href="#DejaVuSans-74" x="1855.375"/>
     <use xlink:href="#DejaVuSans-73" x="1894.583984"/>
     <use xlink:href="#DejaVuSans-6b" x="1946.683594"/>
     <use xlink:href="#DejaVuSans-fd" x="2000.96875"/>
     <use xlink:href="#DejaVuSans-63" x="2060.148438"/>
     <use xlink:href="#DejaVuSans-68" x="2115.128906"/>
     <use xlink:href="#DejaVuSans-20" x="2178.507812"/>
     <use xlink:href="#DejaVuSans-6f" x="2210.294922"/>
     <use xlink:href="#DejaVuSans-6b" x="2271.476562"/>
     <use xlink:href="#DejaVuSans-72" x="2329.386719"/>
     <use xlink:href="#DejaVuSans-75" x="2370.5"/>
     <use xlink:href="#DejaVuSans-68" x="2433.878906"/>
     <use xlink:href="#DejaVuSans-16f" x="2497.257812"/>
     <use xlink:href="#DejaVuSans-2c" x="2560.636719"/>
     <use xlink:href="#DejaVuSans-20" x="2592.423828"/>
     <use xlink:href="#DejaVuSans-76" x="2624.210938"/>
     <use xlink:href="#DejaVuSans-ed" x="2683.390625"/>
     <use xlink:href="#DejaVuSans-63" x="2711.173828"/>
     <use xlink:href="#DejaVuSans-20" x="2766.154297"/>
     <use xlink:href="#DejaVuSans-74" x="2797.941406"/>
     <use xlink:href="#DejaVuSans-6d" x="2837.150391"/>
     <use xlink:href="#DejaVuSans-79" x="2934.5625"/>
    </g>
   </g>
   <g id="legend_1">
    <g id="patch_81">
     <path d="M 30.425 46.45375 
L 250.342188 46.45375 
Q 252.342188 46.45375 252.342188 44.45375 
L 252.342188 30.375625 
Q 252.342188 28.375625 250.342188 28.375625 
L 30.425 28.375625 
Q 28.425 28.375625 28.425 30.375625 
L 28.425 44.45375 
Q 28.425 46.45375 30.425 46.45375 
z
" style="fill: #ffffff; opacity: 0.8; stroke: #cccccc; stroke-linejoin: miter"/>
    </g>
    <g id="patch_82">
     <path d="M 32.425 40.374063 
L 52.425 40.374063 
L 52.425 33.374063 
L 32.425 33.374063 
z
" style="fill: #d3d3d3"/>
    </g>
    <g id="text_15">
     <!-- Počet velkých cen v mistrovství světa -->
     <g transform="translate(60.425 40.374063)scale(0.1 -0.1)">
      <defs>
       <path id="DejaVuSans-10d" d="M 3122 3366 
L 3122 2828 
Q 2878 2963 2633 3030 
Q 2388 3097 2138 3097 
Q 1578 3097 1268 2742 
Q 959 2388 959 1747 
Q 959 1106 1268 751 
Q 1578 397 2138 397 
Q 2388 397 2633 464 
Q 2878 531 3122 666 
L 3122 134 
Q 2881 22 2623 -34 
Q 2366 -91 2075 -91 
Q 1284 -91 818 406 
Q 353 903 353 1747 
Q 353 2603 823 3093 
Q 1294 3584 2113 3584 
Q 2378 3584 2631 3529 
Q 2884 3475 3122 3366 
z
M 1801 3944 
L 1035 5119 
L 1470 5119 
L 2032 4353 
L 2595 5119 
L 3029 5119 
L 2263 3944 
L 1801 3944 
z
" transform="scale(0.015625)"/>
       <path id="DejaVuSans-61" d="M 2194 1759 
Q 1497 1759 1228 1600 
Q 959 1441 959 1056 
Q 959 750 1161 570 
Q 1363 391 1709 391 
Q 2188 391 2477 730 
Q 2766 1069 2766 1631 
L 2766 1759 
L 2194 1759 
z
M 3341 1997 
L 3341 0 
L 2766 0 
L 2766 531 
Q 2569 213 2275 61 
Q 1981 -91 1556 -91 
Q 1019 -91 701 211 
Q 384 513 384 1019 
Q 384 1609 779 1909 
Q 1175 2209 1959 2209 
L 2766 2209 
L 2766 2266 
Q 2766 2663 2505 2880 
Q 2244 3097 1772 3097 
Q 1472 3097 1187 3025 
Q 903 2953 641 2809 
L 641 3341 
Q 956 3463 1253 3523 
Q 1550 3584 1831 3584 
Q 2591 3584 2966 3190 
Q 3341 2797 3341 1997 
z
" transform="scale(0.015625)"/>
      </defs>
      <use xlink:href="#DejaVuSans-50"/>
      <use xlink:href="#DejaVuSans-6f" x="56.677734"/>
      <use xlink:href="#DejaVuSans-10d" x="117.859375"/>
      <use xlink:href="#DejaVuSans-65" x="172.839844"/>
      <use xlink:href="#DejaVuSans-74" x="234.363281"/>
      <use xlink:href="#DejaVuSans-20" x="273.572266"/>
      <use xlink:href="#DejaVuSans-76" x="305.359375"/>
      <use xlink:href="#DejaVuSans-65" x="364.539062"/>
      <use xlink:href="#DejaVuSans-6c" x="426.0625"/>
      <use xlink:href="#DejaVuSans-6b" x="453.845703"/>
      <use xlink:href="#DejaVuSans-fd" x="508.130859"/>
      <use xlink:href="#DejaVuSans-63" x="567.310547"/>
      <use xlink:href="#DejaVuSans-68" x="622.291016"/>
      <use xlink:href="#DejaVuSans-20" x="685.669922"/>
      <use xlink:href="#DejaVuSans-63" x="717.457031"/>
      <use xlink:href="#DejaVuSans-65" x="772.4375"/>
      <use xlink:href="#DejaVuSans-6e" x="833.960938"/>
      <use xlink:href="#DejaVuSans-20" x="897.339844"/>
      <use xlink:href="#DejaVuSans-76" x="929.126953"/>
      <use xlink:href="#DejaVuSans-20" x="988.306641"/>
      <use xlink:href="#DejaVuSans-6d" x="1020.09375"/>
      <use xlink:href="#DejaVuSans-69" x="1117.505859"/>
      <use xlink:href="#DejaVuSans-73" x="1145.289062"/>
      <use xlink:href="#DejaVuSans-74" x="1197.388672"/>
      <use xlink:href="#DejaVuSans-72" x="1236.597656"/>
      <use xlink:href="#DejaVuSans-6f" x="1275.460938"/>
      <use xlink:href="#DejaVuSans-76" x="1336.642578"/>
      <use xlink:href="#DejaVuSans-73" x="1395.822266"/>
      <use xlink:href="#DejaVuSans-74" x="1447.921875"/>
      <use xlink:href="#DejaVuSans-76" x="1487.130859"/>
      <use xlink:href="#DejaVuSans-ed" x="1546.310547"/>
      <use xlink:href="#DejaVuSans-20" x="1574.09375"/>
      <use xlink:href="#DejaVuSans-73" x="1605.880859"/>
      <use xlink:href="#DejaVuSans-76" x="1657.980469"/>
      <use xlink:href="#DejaVuSans-11b" x="1717.160156"/>
      <use xlink:href="#DejaVuSans-74" x="1778.683594"/>
      <use xlink:href="#DejaVuSans-61" x="1817.892578"/>
     </g>
    </g>
   </g>
  </g>
  <g id="axes_2">
   <g id="matplotlib.axis_3">
    <g id="ytick_6">
     <g id="line2d_27"/>
     <g id="text_16">
      <!-- 0.0% -->
      <g transform="translate(529.832813 264.221094)scale(0.1 -0.1)">
       <defs>
        <path id="DejaVuSans-2e" d="M 684 794 
L 1344 794 
L 1344 0 
L 684 0 
L 684 794 
z
" transform="scale(0.015625)"/>
        <path id="DejaVuSans-25" d="M 4653 2053 
Q 4381 2053 4226 1822 
Q 4072 1591 4072 1178 
Q 4072 772 4226 539 
Q 4381 306 4653 306 
Q 4919 306 5073 539 
Q 5228 772 5228 1178 
Q 5228 1588 5073 1820 
Q 4919 2053 4653 2053 
z
M 4653 2450 
Q 5147 2450 5437 2106 
Q 5728 1763 5728 1178 
Q 5728 594 5436 251 
Q 5144 -91 4653 -91 
Q 4153 -91 3862 251 
Q 3572 594 3572 1178 
Q 3572 1766 3864 2108 
Q 4156 2450 4653 2450 
z
M 1428 4353 
Q 1159 4353 1004 4120 
Q 850 3888 850 3481 
Q 850 3069 1003 2837 
Q 1156 2606 1428 2606 
Q 1700 2606 1854 2837 
Q 2009 3069 2009 3481 
Q 2009 3884 1853 4118 
Q 1697 4353 1428 4353 
z
M 4250 4750 
L 4750 4750 
L 1831 -91 
L 1331 -91 
L 4250 4750 
z
M 1428 4750 
Q 1922 4750 2215 4408 
Q 2509 4066 2509 3481 
Q 2509 2891 2217 2550 
Q 1925 2209 1428 2209 
Q 931 2209 642 2551 
Q 353 2894 353 3481 
Q 353 4063 643 4406 
Q 934 4750 1428 4750 
z
" transform="scale(0.015625)"/>
       </defs>
       <use xlink:href="#DejaVuSans-30"/>
       <use xlink:href="#DejaVuSans-2e" x="63.623047"/>
       <use xlink:href="#DejaVuSans-30" x="95.410156"/>
       <use xlink:href="#DejaVuSans-25" x="159.033203"/>
      </g>
     </g>
    </g>
    <g id="ytick_7">
     <g id="line2d_28"/>
     <g id="text_17">
      <!-- 5.0% -->
      <g transform="translate(529.832813 231.519612)scale(0.1 -0.1)">
       <use xlink:href="#DejaVuSans-35"/>
       <use xlink:href="#DejaVuSans-2e" x="63.623047"/>
       <use xlink:href="#DejaVuSans-30" x="95.410156"/>
       <use xlink:href="#DejaVuSans-25" x="159.033203"/>
      </g>
     </g>
    </g>
    <g id="ytick_8">
     <g id="line2d_29"/>
     <g id="text_18">
      <!-- 10.0% -->
      <g transform="translate(529.832813 198.81813)scale(0.1 -0.1)">
       <use xlink:href="#DejaVuSans-31"/>
       <use xlink:href="#DejaVuSans-30" x="63.623047"/>
       <use xlink:href="#DejaVuSans-2e" x="127.246094"/>
       <use xlink:href="#DejaVuSans-30" x="159.033203"/>
       <use xlink:href="#DejaVuSans-25" x="222.65625"/>
      </g>
     </g>
    </g>
    <g id="ytick_9">
     <g id="line2d_30"/>
     <g id="text_19">
      <!-- 15.0% -->
      <g transform="translate(529.832813 166.116648)scale(0.1 -0.1)">
       <use xlink:href="#DejaVuSans-31"/>
       <use xlink:href="#DejaVuSans-35" x="63.623047"/>
       <use xlink:href="#DejaVuSans-2e" x="127.246094"/>
       <use xlink:href="#DejaVuSans-30" x="159.033203"/>
       <use xlink:href="#DejaVuSans-25" x="222.65625"/>
      </g>
     </g>
    </g>
    <g id="ytick_10">
     <g id="line2d_31"/>
     <g id="text_20">
      <!-- 20.0% -->
      <g transform="translate(529.832813 133.415166)scale(0.1 -0.1)">
       <use xlink:href="#DejaVuSans-32"/>
       <use xlink:href="#DejaVuSans-30" x="63.623047"/>
       <use xlink:href="#DejaVuSans-2e" x="127.246094"/>
       <use xlink:href="#DejaVuSans-30" x="159.033203"/>
       <use xlink:href="#DejaVuSans-25" x="222.65625"/>
      </g>
     </g>
    </g>
    <g id="ytick_11">
     <g id="line2d_32"/>
     <g id="text_21">
      <!-- 25.0% -->
      <g transform="translate(529.832813 100.713684)scale(0.1 -0.1)">
       <use xlink:href="#DejaVuSans-32"/>
       <use xlink:href="#DejaVuSans-35" x="63.623047"/>
       <use xlink:href="#DejaVuSans-2e" x="127.246094"/>
       <use xlink:href="#DejaVuSans-30" x="159.033203"/>
       <use xlink:href="#DejaVuSans-25" x="222.65625"/>
      </g>
     </g>
    </g>
    <g id="ytick_12">
     <g id="line2d_33"/>
     <g id="text_22">
      <!-- 30.0% -->
      <g transform="translate(529.832813 68.012202)scale(0.1 -0.1)">
       <defs>
        <path id="DejaVuSans-33" d="M 2597 2516 
Q 3050 2419 3304 2112 
Q 3559 1806 3559 1356 
Q 3559 666 3084 287 
Q 2609 -91 1734 -91 
Q 1441 -91 1130 -33 
Q 819 25 488 141 
L 488 750 
Q 750 597 1062 519 
Q 1375 441 1716 441 
Q 2309 441 2620 675 
Q 2931 909 2931 1356 
Q 2931 1769 2642 2001 
Q 2353 2234 1838 2234 
L 1294 2234 
L 1294 2753 
L 1863 2753 
Q 2328 2753 2575 2939 
Q 2822 3125 2822 3475 
Q 2822 3834 2567 4026 
Q 2313 4219 1838 4219 
Q 1578 4219 1281 4162 
Q 984 4106 628 3988 
L 628 4550 
Q 988 4650 1302 4700 
Q 1616 4750 1894 4750 
Q 2613 4750 3031 4423 
Q 3450 4097 3450 3541 
Q 3450 3153 3228 2886 
Q 3006 2619 2597 2516 
z
" transform="scale(0.015625)"/>
       </defs>
       <use xlink:href="#DejaVuSans-33"/>
       <use xlink:href="#DejaVuSans-30" x="63.623047"/>
       <use xlink:href="#DejaVuSans-2e" x="127.246094"/>
       <use xlink:href="#DejaVuSans-30" x="159.033203"/>
       <use xlink:href="#DejaVuSans-25" x="222.65625"/>
      </g>
     </g>
    </g>
    <g id="ytick_13">
     <g id="line2d_34"/>
     <g id="text_23">
      <!-- 35.0% -->
      <g transform="translate(529.832813 35.31072)scale(0.1 -0.1)">
       <use xlink:href="#DejaVuSans-33"/>
       <use xlink:href="#DejaVuSans-35" x="63.623047"/>
       <use xlink:href="#DejaVuSans-2e" x="127.246094"/>
       <use xlink:href="#DejaVuSans-30" x="159.033203"/>
       <use xlink:href="#DejaVuSans-25" x="222.65625"/>
      </g>
     </g>
    </g>
   </g>
   <g id="line2d_35">
    <path d="M 48.762435 166.989069 
M 79.737294 166.989069 
L 85.932266 178.66817 
L 92.127238 178.66817 
L 98.322209 141.507395 
L 104.517181 115.081955 
L 110.712153 129.615947 
L 116.907125 178.66817 
L 123.102097 187.751915 
L 129.297068 195.018911 
L 135.49204 195.018911 
L 141.687012 195.018911 
L 147.881984 187.751915 
L 154.076956 200.964635 
L 160.271928 205.919405 
L 166.466899 200.964635 
L 172.661871 210.111903 
L 178.856843 200.964635 
L 185.051815 205.919405 
L 191.246787 216.819899 
L 197.441758 216.819899 
L 203.63673 213.705472 
L 209.831702 178.66817 
L 216.026674 183.477211 
L 222.221646 137.791317 
L 228.416618 129.615947 
L 234.611589 120.272666 
L 240.806561 86.013971 
L 247.001533 56.037612 
L 253.196505 86.013971 
L 259.391477 96.914465 
L 265.586449 96.914465 
L 271.78142 96.914465 
L 277.976392 137.791317 
L 284.171364 96.914465 
L 290.366336 96.914465 
L 296.561308 96.914465 
L 302.756279 96.914465 
L 308.951251 137.791317 
L 315.146223 137.791317 
L 321.341195 137.791317 
L 327.536167 145.00488 
L 333.731139 137.791317 
L 339.92611 145.00488 
L 346.121082 137.791317 
L 352.316054 137.791317 
L 358.511026 145.00488 
L 364.705998 145.00488 
L 370.900969 145.00488 
L 377.095941 137.791317 
L 383.290913 151.416935 
L 389.485885 157.154037 
L 395.680857 151.416935 
L 401.875829 145.00488 
L 408.0708 78.746975 
L 414.265772 106.532548 
L 420.460744 88.308812 
L 426.655716 88.308812 
L 432.850688 96.914465 
L 439.04566 122.731424 
L 445.240631 88.308812 
L 451.435603 88.308812 
L 457.630575 73.556264 
L 463.825547 64.212983 
L 470.020519 73.556264 
L 476.21549 73.556264 
L 482.410462 221.949543 
L 488.605434 141.507395 
L 494.800406 52.321535 
L 500.995378 32.933305 
" clip-path="url(#p32f7ea1340)" style="fill: none; stroke-dasharray: 1.5,2.475; stroke-dashoffset: 0; stroke: #ff0000; stroke-width: 1.5"/>
    <defs>
     <path id="mb3c6f819ea" d="M -3 3 
L 3 -3 
M -3 -3 
L 3 3 
" style="stroke: #ff0000"/>
    </defs>
    <g clip-path="url(#p32f7ea1340)">
     <use xlink:href="#mb3c6f819ea" x="48.762435" y="166.989069" style="fill: #ff0000; stroke: #ff0000"/>
     <use xlink:href="#mb3c6f819ea" x="79.737294" y="166.989069" style="fill: #ff0000; stroke: #ff0000"/>
     <use xlink:href="#mb3c6f819ea" x="85.932266" y="178.66817" style="fill: #ff0000; stroke: #ff0000"/>
     <use xlink:href="#mb3c6f819ea" x="92.127238" y="178.66817" style="fill: #ff0000; stroke: #ff0000"/>
     <use xlink:href="#mb3c6f819ea" x="98.322209" y="141.507395" style="fill: #ff0000; stroke: #ff0000"/>
     <use xlink:href="#mb3c6f819ea" x="104.517181" y="115.081955" style="fill: #ff0000; stroke: #ff0000"/>
     <use xlink:href="#mb3c6f819ea" x="110.712153" y="129.615947" style="fill: #ff0000; stroke: #ff0000"/>
     <use xlink:href="#mb3c6f819ea" x="116.907125" y="178.66817" style="fill: #ff0000; stroke: #ff0000"/>
     <use xlink:href="#mb3c6f819ea" x="123.102097" y="187.751915" style="fill: #ff0000; stroke: #ff0000"/>
     <use xlink:href="#mb3c6f819ea" x="129.297068" y="195.018911" style="fill: #ff0000; stroke: #ff0000"/>
     <use xlink:href="#mb3c6f819ea" x="135.49204" y="195.018911" style="fill: #ff0000; stroke: #ff0000"/>
     <use xlink:href="#mb3c6f819ea" x="141.687012" y="195.018911" style="fill: #ff0000; stroke: #ff0000"/>
     <use xlink:href="#mb3c6f819ea" x="147.881984" y="187.751915" style="fill: #ff0000; stroke: #ff0000"/>
     <use xlink:href="#mb3c6f819ea" x="154.076956" y="200.964635" style="fill: #ff0000; stroke: #ff0000"/>
     <use xlink:href="#mb3c6f819ea" x="160.271928" y="205.919405" style="fill: #ff0000; stroke: #ff0000"/>
     <use xlink:href="#mb3c6f819ea" x="166.466899" y="200.964635" style="fill: #ff0000; stroke: #ff0000"/>
     <use xlink:href="#mb3c6f819ea" x="172.661871" y="210.111903" style="fill: #ff0000; stroke: #ff0000"/>
     <use xlink:href="#mb3c6f819ea" x="178.856843" y="200.964635" style="fill: #ff0000; stroke: #ff0000"/>
     <use xlink:href="#mb3c6f819ea" x="185.051815" y="205.919405" style="fill: #ff0000; stroke: #ff0000"/>
     <use xlink:href="#mb3c6f819ea" x="191.246787" y="216.819899" style="fill: #ff0000; stroke: #ff0000"/>
     <use xlink:href="#mb3c6f819ea" x="197.441758" y="216.819899" style="fill: #ff0000; stroke: #ff0000"/>
     <use xlink:href="#mb3c6f819ea" x="203.63673" y="213.705472" style="fill: #ff0000; stroke: #ff0000"/>
     <use xlink:href="#mb3c6f819ea" x="209.831702" y="178.66817" style="fill: #ff0000; stroke: #ff0000"/>
     <use xlink:href="#mb3c6f819ea" x="216.026674" y="183.477211" style="fill: #ff0000; stroke: #ff0000"/>
     <use xlink:href="#mb3c6f819ea" x="222.221646" y="137.791317" style="fill: #ff0000; stroke: #ff0000"/>
     <use xlink:href="#mb3c6f819ea" x="228.416618" y="129.615947" style="fill: #ff0000; stroke: #ff0000"/>
     <use xlink:href="#mb3c6f819ea" x="234.611589" y="120.272666" style="fill: #ff0000; stroke: #ff0000"/>
     <use xlink:href="#mb3c6f819ea" x="240.806561" y="86.013971" style="fill: #ff0000; stroke: #ff0000"/>
     <use xlink:href="#mb3c6f819ea" x="247.001533" y="56.037612" style="fill: #ff0000; stroke: #ff0000"/>
     <use xlink:href="#mb3c6f819ea" x="253.196505" y="86.013971" style="fill: #ff0000; stroke: #ff0000"/>
     <use xlink:href="#mb3c6f819ea" x="259.391477" y="96.914465" style="fill: #ff0000; stroke: #ff0000"/>
     <use xlink:href="#mb3c6f819ea" x="265.586449" y="96.914465" style="fill: #ff0000; stroke: #ff0000"/>
     <use xlink:href="#mb3c6f819ea" x="271.78142" y="96.914465" style="fill: #ff0000; stroke: #ff0000"/>
     <use xlink:href="#mb3c6f819ea" x="277.976392" y="137.791317" style="fill: #ff0000; stroke: #ff0000"/>
     <use xlink:href="#mb3c6f819ea" x="284.171364" y="96.914465" style="fill: #ff0000; stroke: #ff0000"/>
     <use xlink:href="#mb3c6f819ea" x="290.366336" y="96.914465" style="fill: #ff0000; stroke: #ff0000"/>
     <use xlink:href="#mb3c6f819ea" x="296.561308" y="96.914465" style="fill: #ff0000; stroke: #ff0000"/>
     <use xlink:href="#mb3c6f819ea" x="302.756279" y="96.914465" style="fill: #ff0000; stroke: #ff0000"/>
     <use xlink:href="#mb3c6f819ea" x="308.951251" y="137.791317" style="fill: #ff0000; stroke: #ff0000"/>
     <use xlink:href="#mb3c6f819ea" x="315.146223" y="137.791317" style="fill: #ff0000; stroke: #ff0000"/>
     <use xlink:href="#mb3c6f819ea" x="321.341195" y="137.791317" style="fill: #ff0000; stroke: #ff0000"/>
     <use xlink:href="#mb3c6f819ea" x="327.536167" y="145.00488" style="fill: #ff0000; stroke: #ff0000"/>
     <use xlink:href="#mb3c6f819ea" x="333.731139" y="137.791317" style="fill: #ff0000; stroke: #ff0000"/>
     <use xlink:href="#mb3c6f819ea" x="339.92611" y="145.00488" style="fill: #ff0000; stroke: #ff0000"/>
     <use xlink:href="#mb3c6f819ea" x="346.121082" y="137.791317" style="fill: #ff0000; stroke: #ff0000"/>
     <use xlink:href="#mb3c6f819ea" x="352.316054" y="137.791317" style="fill: #ff0000; stroke: #ff0000"/>
     <use xlink:href="#mb3c6f819ea" x="358.511026" y="145.00488" style="fill: #ff0000; stroke: #ff0000"/>
     <use xlink:href="#mb3c6f819ea" x="364.705998" y="145.00488" style="fill: #ff0000; stroke: #ff0000"/>
     <use xlink:href="#mb3c6f819ea" x="370.900969" y="145.00488" style="fill: #ff0000; stroke: #ff0000"/>
     <use xlink:href="#mb3c6f819ea" x="377.095941" y="137.791317" style="fill: #ff0000; stroke: #ff0000"/>
     <use xlink:href="#mb3c6f819ea" x="383.290913" y="151.416935" style="fill: #ff0000; stroke: #ff0000"/>
     <use xlink:href="#mb3c6f819ea" x="389.485885" y="157.154037" style="fill: #ff0000; stroke: #ff0000"/>
     <use xlink:href="#mb3c6f819ea" x="395.680857" y="151.416935" style="fill: #ff0000; stroke: #ff0000"/>
     <use xlink:href="#mb3c6f819ea" x="401.875829" y="145.00488" style="fill: #ff0000; stroke: #ff0000"/>
     <use xlink:href="#mb3c6f819ea" x="408.0708" y="78.746975" style="fill: #ff0000; stroke: #ff0000"/>
     <use xlink:href="#mb3c6f819ea" x="414.265772" y="106.532548" style="fill: #ff0000; stroke: #ff0000"/>
     <use xlink:href="#mb3c6f819ea" x="420.460744" y="88.308812" style="fill: #ff0000; stroke: #ff0000"/>
     <use xlink:href="#mb3c6f819ea" x="426.655716" y="88.308812" style="fill: #ff0000; stroke: #ff0000"/>
     <use xlink:href="#mb3c6f819ea" x="432.850688" y="96.914465" style="fill: #ff0000; stroke: #ff0000"/>
     <use xlink:href="#mb3c6f819ea" x="439.04566" y="122.731424" style="fill: #ff0000; stroke: #ff0000"/>
     <use xlink:href="#mb3c6f819ea" x="445.240631" y="88.308812" style="fill: #ff0000; stroke: #ff0000"/>
     <use xlink:href="#mb3c6f819ea" x="451.435603" y="88.308812" style="fill: #ff0000; stroke: #ff0000"/>
     <use xlink:href="#mb3c6f819ea" x="457.630575" y="73.556264" style="fill: #ff0000; stroke: #ff0000"/>
     <use xlink:href="#mb3c6f819ea" x="463.825547" y="64.212983" style="fill: #ff0000; stroke: #ff0000"/>
     <use xlink:href="#mb3c6f819ea" x="470.020519" y="73.556264" style="fill: #ff0000; stroke: #ff0000"/>
     <use xlink:href="#mb3c6f819ea" x="476.21549" y="73.556264" style="fill: #ff0000; stroke: #ff0000"/>
     <use xlink:href="#mb3c6f819ea" x="482.410462" y="221.949543" style="fill: #ff0000; stroke: #ff0000"/>
     <use xlink:href="#mb3c6f819ea" x="488.605434" y="141.507395" style="fill: #ff0000; stroke: #ff0000"/>
     <use xlink:href="#mb3c6f819ea" x="494.800406" y="52.321535" style="fill: #ff0000; stroke: #ff0000"/>
     <use xlink:href="#mb3c6f819ea" x="500.995378" y="32.933305" style="fill: #ff0000; stroke: #ff0000"/>
    </g>
   </g>
   <g id="line2d_36">
    <path d="M 408.0708 224.086895 
L 414.265772 183.477211 
L 420.460744 191.57665 
L 426.655716 191.57665 
L 432.850688 195.018911 
L 439.04566 191.57665 
L 445.240631 157.154037 
L 451.435603 157.154037 
L 457.630575 166.989069 
L 463.825547 162.317429 
L 470.020519 166.989069 
L 476.21549 166.989069 
L 482.410462 145.00488 
L 488.605434 141.507395 
L 494.800406 141.507395 
L 500.995378 89.805447 
" clip-path="url(#p32f7ea1340)" style="fill: none; stroke-dasharray: 1.5,2.475; stroke-dashoffset: 0; stroke: #00008b; stroke-width: 1.5"/>
    <defs>
     <path id="m82cdf08999" d="M 0 1.5 
C 0.397805 1.5 0.77937 1.341951 1.06066 1.06066 
C 1.341951 0.77937 1.5 0.397805 1.5 0 
C 1.5 -0.397805 1.341951 -0.77937 1.06066 -1.06066 
C 0.77937 -1.341951 0.397805 -1.5 0 -1.5 
C -0.397805 -1.5 -0.77937 -1.341951 -1.06066 -1.06066 
C -1.341951 -0.77937 -1.5 -0.397805 -1.5 0 
C -1.5 0.397805 -1.341951 0.77937 -1.06066 1.06066 
C -0.77937 1.341951 -0.397805 1.5 0 1.5 
z
" style="stroke: #00008b"/>
    </defs>
    <g clip-path="url(#p32f7ea1340)">
     <use xlink:href="#m82cdf08999" x="408.0708" y="224.086895" style="fill: #00008b; stroke: #00008b"/>
     <use xlink:href="#m82cdf08999" x="414.265772" y="183.477211" style="fill: #00008b; stroke: #00008b"/>
     <use xlink:href="#m82cdf08999" x="420.460744" y="191.57665" style="fill: #00008b; stroke: #00008b"/>
     <use xlink:href="#m82cdf08999" x="426.655716" y="191.57665" style="fill: #00008b; stroke: #00008b"/>
     <use xlink:href="#m82cdf08999" x="432.850688" y="195.018911" style="fill: #00008b; stroke: #00008b"/>
     <use xlink:href="#m82cdf08999" x="439.04566" y="191.57665" style="fill: #00008b; stroke: #00008b"/>
     <use xlink:href="#m82cdf08999" x="445.240631" y="157.154037" style="fill: #00008b; stroke: #00008b"/>
     <use xlink:href="#m82cdf08999" x="451.435603" y="157.154037" style="fill: #00008b; stroke: #00008b"/>
     <use xlink:href="#m82cdf08999" x="457.630575" y="166.989069" style="fill: #00008b; stroke: #00008b"/>
     <use xlink:href="#m82cdf08999" x="463.825547" y="162.317429" style="fill: #00008b; stroke: #00008b"/>
     <use xlink:href="#m82cdf08999" x="470.020519" y="166.989069" style="fill: #00008b; stroke: #00008b"/>
     <use xlink:href="#m82cdf08999" x="476.21549" y="166.989069" style="fill: #00008b; stroke: #00008b"/>
     <use xlink:href="#m82cdf08999" x="482.410462" y="145.00488" style="fill: #00008b; stroke: #00008b"/>
     <use xlink:href="#m82cdf08999" x="488.605434" y="141.507395" style="fill: #00008b; stroke: #00008b"/>
     <use xlink:href="#m82cdf08999" x="494.800406" y="141.507395" style="fill: #00008b; stroke: #00008b"/>
     <use xlink:href="#m82cdf08999" x="500.995378" y="89.805447" style="fill: #00008b; stroke: #00008b"/>
    </g>
   </g>
   <g id="patch_83">
    <path d="M 23.425 260.421875 
L 23.425 23.375625 
" style="fill: none; stroke: #000000; stroke-width: 0.8; stroke-linejoin: miter; stroke-linecap: square"/>
   </g>
   <g id="patch_84">
    <path d="M 526.332813 260.421875 
L 526.332813 23.375625 
" style="fill: none; stroke: #000000; stroke-width: 0.8; stroke-linejoin: miter; stroke-linecap: square"/>
   </g>
   <g id="patch_85">
    <path d="M 23.425 260.421875 
L 526.332812 260.421875 
" style="fill: none; stroke: #000000; stroke-width: 0.8; stroke-linejoin: miter; stroke-linecap: square"/>
   </g>
   <g id="patch_86">
    <path d="M 23.425 23.375625 
L 526.332812 23.375625 
" style="fill: none; stroke: #000000; stroke-width: 0.8; stroke-linejoin: miter; stroke-linecap: square"/>
   </g>
   <g id="legend_2">
    <g id="patch_87">
     <path d="M 30.425 255.421875 
L 249.520313 255.421875 
Q 251.520313 255.421875 251.520313 253.421875 
L 251.520313 223.784375 
Q 251.520313 221.784375 249.520313 221.784375 
L 30.425 221.784375 
Q 28.425 221.784375 28.425 223.784375 
L 28.425 253.421875 
Q 28.425 255.421875 30.425 255.421875 
z
" style="fill: #ffffff; opacity: 0.8; stroke: #cccccc; stroke-linejoin: miter"/>
    </g>
    <g id="line2d_37">
     <path d="M 32.425 230.282813 
L 42.425 230.282813 
L 52.425 230.282813 
" style="fill: none; stroke-dasharray: 1.5,2.475; stroke-dashoffset: 0; stroke: #ff0000; stroke-width: 1.5"/>
     <g>
      <use xlink:href="#mb3c6f819ea" x="42.425" y="230.282813" style="fill: #ff0000; stroke: #ff0000"/>
     </g>
    </g>
    <g id="text_24">
     <!-- Podíl městských tratí -->
     <g transform="translate(60.425 233.782813)scale(0.1 -0.1)">
      <use xlink:href="#DejaVuSans-50"/>
      <use xlink:href="#DejaVuSans-6f" x="56.677734"/>
      <use xlink:href="#DejaVuSans-64" x="117.859375"/>
      <use xlink:href="#DejaVuSans-ed" x="181.335938"/>
      <use xlink:href="#DejaVuSans-6c" x="209.119141"/>
      <use xlink:href="#DejaVuSans-20" x="236.902344"/>
      <use xlink:href="#DejaVuSans-6d" x="268.689453"/>
      <use xlink:href="#DejaVuSans-11b" x="366.101562"/>
      <use xlink:href="#DejaVuSans-73" x="427.625"/>
      <use xlink:href="#DejaVuSans-74" x="479.724609"/>
      <use xlink:href="#DejaVuSans-73" x="518.933594"/>
      <use xlink:href="#DejaVuSans-6b" x="571.033203"/>
      <use xlink:href="#DejaVuSans-fd" x="625.318359"/>
      <use xlink:href="#DejaVuSans-63" x="684.498047"/>
      <use xlink:href="#DejaVuSans-68" x="739.478516"/>
      <use xlink:href="#DejaVuSans-20" x="802.857422"/>
      <use xlink:href="#DejaVuSans-74" x="834.644531"/>
      <use xlink:href="#DejaVuSans-72" x="873.853516"/>
      <use xlink:href="#DejaVuSans-61" x="914.966797"/>
      <use xlink:href="#DejaVuSans-74" x="976.246094"/>
      <use xlink:href="#DejaVuSans-ed" x="1015.455078"/>
     </g>
    </g>
    <g id="line2d_38">
     <path d="M 32.425 245.842187 
L 42.425 245.842187 
L 52.425 245.842187 
" style="fill: none; stroke-dasharray: 1.5,2.475; stroke-dashoffset: 0; stroke: #00008b; stroke-width: 1.5"/>
     <g>
      <use xlink:href="#m82cdf08999" x="42.425" y="245.842187" style="fill: #00008b; stroke: #00008b"/>
     </g>
    </g>
    <g id="text_25">
     <!-- Podíl závodů pod umělým osvětlením -->
     <g transform="translate(60.425 249.342187)scale(0.1 -0.1)">
      <defs>
       <path id="DejaVuSans-70" d="M 1159 525 
L 1159 -1331 
L 581 -1331 
L 581 3500 
L 1159 3500 
L 1159 2969 
Q 1341 3281 1617 3432 
Q 1894 3584 2278 3584 
Q 2916 3584 3314 3078 
Q 3713 2572 3713 1747 
Q 3713 922 3314 415 
Q 2916 -91 2278 -91 
Q 1894 -91 1617 61 
Q 1341 213 1159 525 
z
M 3116 1747 
Q 3116 2381 2855 2742 
Q 2594 3103 2138 3103 
Q 1681 3103 1420 2742 
Q 1159 2381 1159 1747 
Q 1159 1113 1420 752 
Q 1681 391 2138 391 
Q 2594 391 2855 752 
Q 3116 1113 3116 1747 
z
" transform="scale(0.015625)"/>
      </defs>
      <use xlink:href="#DejaVuSans-50"/>
      <use xlink:href="#DejaVuSans-6f" x="56.677734"/>
      <use xlink:href="#DejaVuSans-64" x="117.859375"/>
      <use xlink:href="#DejaVuSans-ed" x="181.335938"/>
      <use xlink:href="#DejaVuSans-6c" x="209.119141"/>
      <use xlink:href="#DejaVuSans-20" x="236.902344"/>
      <use xlink:href="#DejaVuSans-7a" x="268.689453"/>
      <use xlink:href="#DejaVuSans-e1" x="321.179688"/>
      <use xlink:href="#DejaVuSans-76" x="382.458984"/>
      <use xlink:href="#DejaVuSans-6f" x="441.638672"/>
      <use xlink:href="#DejaVuSans-64" x="502.820312"/>
      <use xlink:href="#DejaVuSans-16f" x="566.296875"/>
      <use xlink:href="#DejaVuSans-20" x="629.675781"/>
      <use xlink:href="#DejaVuSans-70" x="661.462891"/>
      <use xlink:href="#DejaVuSans-6f" x="724.939453"/>
      <use xlink:href="#DejaVuSans-64" x="786.121094"/>
      <use xlink:href="#DejaVuSans-20" x="849.597656"/>
      <use xlink:href="#DejaVuSans-75" x="881.384766"/>
      <use xlink:href="#DejaVuSans-6d" x="944.763672"/>
      <use xlink:href="#DejaVuSans-11b" x="1042.175781"/>
      <use xlink:href="#DejaVuSans-6c" x="1103.699219"/>
      <use xlink:href="#DejaVuSans-fd" x="1131.482422"/>
      <use xlink:href="#DejaVuSans-6d" x="1190.662109"/>
      <use xlink:href="#DejaVuSans-20" x="1288.074219"/>
      <use xlink:href="#DejaVuSans-6f" x="1319.861328"/>
      <use xlink:href="#DejaVuSans-73" x="1381.042969"/>
      <use xlink:href="#DejaVuSans-76" x="1433.142578"/>
      <use xlink:href="#DejaVuSans-11b" x="1492.322266"/>
      <use xlink:href="#DejaVuSans-74" x="1553.845703"/>
      <use xlink:href="#DejaVuSans-6c" x="1593.054688"/>
      <use xlink:href="#DejaVuSans-65" x="1620.837891"/>
      <use xlink:href="#DejaVuSans-6e" x="1682.361328"/>
      <use xlink:href="#DejaVuSans-ed" x="1745.740234"/>
      <use xlink:href="#DejaVuSans-6d" x="1773.523438"/>
     </g>
    </g>
   </g>
  </g>
 </g>
 <defs>
  <clipPath id="p32f7ea1340">
   <rect x="23.425" y="23.375625" width="502.907813" height="237.04625"/>
  </clipPath>
 </defs>
</svg>
