<?xml version="1.0" encoding="utf-8" standalone="no"?>
<!DOCTYPE svg PUBLIC "-//W3C//DTD SVG 1.1//EN"
  "http://www.w3.org/Graphics/SVG/1.1/DTD/svg11.dtd">
<svg xmlns:xlink="http://www.w3.org/1999/xlink" width="717.348437pt" height="280.8pt" viewBox="0 0 717.348437 280.8" xmlns="http://www.w3.org/2000/svg" version="1.1">
 <metadata>
  <rdf:RDF xmlns:dc="http://purl.org/dc/elements/1.1/" xmlns:cc="http://creativecommons.org/ns#" xmlns:rdf="http://www.w3.org/1999/02/22-rdf-syntax-ns#">
   <cc:Work>
    <dc:type rdf:resource="http://purl.org/dc/dcmitype/StillImage"/>
    <dc:date>2023-02-24T22:01:49.922521</dc:date>
    <dc:format>image/svg+xml</dc:format>
    <dc:creator>
     <cc:Agent>
      <dc:title>Matplotlib v3.5.1, https://matplotlib.org/</dc:title>
     </cc:Agent>
    </dc:creator>
   </cc:Work>
  </rdf:RDF>
 </metadata>
 <defs>
  <style type="text/css">*{stroke-linejoin: round; stroke-linecap: butt}</style>
 </defs>
 <g id="figure_1">
  <g id="patch_1">
   <path d="M 0 280.8 
L 717.348437 280.8 
L 717.348437 0 
L 0 0 
L 0 280.8 
z
" style="fill: none"/>
  </g>
  <g id="axes_1">
   <g id="patch_2">
    <path d="M 48.875 260.421875 
L 464.806562 260.421875 
L 464.806562 22.318125 
L 48.875 22.318125 
z
" style="fill: #ffffff"/>
   </g>
   <g id="matplotlib.axis_1">
    <g id="xtick_1">
     <g id="line2d_1"/>
     <g id="text_1">
      <!-- 1950 -->
      <g transform="translate(57.105409 271.520312)scale(0.1 -0.1)">
       <defs>
        <path id="DejaVuSans-31" d="M 794 531 
L 1825 531 
L 1825 4091 
L 703 3866 
L 703 4441 
L 1819 4666 
L 2450 4666 
L 2450 531 
L 3481 531 
L 3481 0 
L 794 0 
L 794 531 
z
" transform="scale(0.015625)"/>
        <path id="DejaVuSans-39" d="M 703 97 
L 703 672 
Q 941 559 1184 500 
Q 1428 441 1663 441 
Q 2288 441 2617 861 
Q 2947 1281 2994 2138 
Q 2813 1869 2534 1725 
Q 2256 1581 1919 1581 
Q 1219 1581 811 2004 
Q 403 2428 403 3163 
Q 403 3881 828 4315 
Q 1253 4750 1959 4750 
Q 2769 4750 3195 4129 
Q 3622 3509 3622 2328 
Q 3622 1225 3098 567 
Q 2575 -91 1691 -91 
Q 1453 -91 1209 -44 
Q 966 3 703 97 
z
M 1959 2075 
Q 2384 2075 2632 2365 
Q 2881 2656 2881 3163 
Q 2881 3666 2632 3958 
Q 2384 4250 1959 4250 
Q 1534 4250 1286 3958 
Q 1038 3666 1038 3163 
Q 1038 2656 1286 2365 
Q 1534 2075 1959 2075 
z
" transform="scale(0.015625)"/>
        <path id="DejaVuSans-35" d="M 691 4666 
L 3169 4666 
L 3169 4134 
L 1269 4134 
L 1269 2991 
Q 1406 3038 1543 3061 
Q 1681 3084 1819 3084 
Q 2600 3084 3056 2656 
Q 3513 2228 3513 1497 
Q 3513 744 3044 326 
Q 2575 -91 1722 -91 
Q 1428 -91 1123 -41 
Q 819 9 494 109 
L 494 744 
Q 775 591 1075 516 
Q 1375 441 1709 441 
Q 2250 441 2565 725 
Q 2881 1009 2881 1497 
Q 2881 1984 2565 2268 
Q 2250 2553 1709 2553 
Q 1456 2553 1204 2497 
Q 953 2441 691 2322 
L 691 4666 
z
" transform="scale(0.015625)"/>
        <path id="DejaVuSans-30" d="M 2034 4250 
Q 1547 4250 1301 3770 
Q 1056 3291 1056 2328 
Q 1056 1369 1301 889 
Q 1547 409 2034 409 
Q 2525 409 2770 889 
Q 3016 1369 3016 2328 
Q 3016 3291 2770 3770 
Q 2525 4250 2034 4250 
z
M 2034 4750 
Q 2819 4750 3233 4129 
Q 3647 3509 3647 2328 
Q 3647 1150 3233 529 
Q 2819 -91 2034 -91 
Q 1250 -91 836 529 
Q 422 1150 422 2328 
Q 422 3509 836 4129 
Q 1250 4750 2034 4750 
z
" transform="scale(0.015625)"/>
       </defs>
       <use xlink:href="#DejaVuSans-31"/>
       <use xlink:href="#DejaVuSans-39" x="63.623047"/>
       <use xlink:href="#DejaVuSans-35" x="127.246094"/>
       <use xlink:href="#DejaVuSans-30" x="190.869141"/>
      </g>
     </g>
    </g>
    <g id="xtick_2">
     <g id="line2d_2"/>
     <g id="text_2">
      <!-- 1960 -->
      <g transform="translate(108.341127 271.520312)scale(0.1 -0.1)">
       <defs>
        <path id="DejaVuSans-36" d="M 2113 2584 
Q 1688 2584 1439 2293 
Q 1191 2003 1191 1497 
Q 1191 994 1439 701 
Q 1688 409 2113 409 
Q 2538 409 2786 701 
Q 3034 994 3034 1497 
Q 3034 2003 2786 2293 
Q 2538 2584 2113 2584 
z
M 3366 4563 
L 3366 3988 
Q 3128 4100 2886 4159 
Q 2644 4219 2406 4219 
Q 1781 4219 1451 3797 
Q 1122 3375 1075 2522 
Q 1259 2794 1537 2939 
Q 1816 3084 2150 3084 
Q 2853 3084 3261 2657 
Q 3669 2231 3669 1497 
Q 3669 778 3244 343 
Q 2819 -91 2113 -91 
Q 1303 -91 875 529 
Q 447 1150 447 2328 
Q 447 3434 972 4092 
Q 1497 4750 2381 4750 
Q 2619 4750 2861 4703 
Q 3103 4656 3366 4563 
z
" transform="scale(0.015625)"/>
       </defs>
       <use xlink:href="#DejaVuSans-31"/>
       <use xlink:href="#DejaVuSans-39" x="63.623047"/>
       <use xlink:href="#DejaVuSans-36" x="127.246094"/>
       <use xlink:href="#DejaVuSans-30" x="190.869141"/>
      </g>
     </g>
    </g>
    <g id="xtick_3">
     <g id="line2d_3"/>
     <g id="text_3">
      <!-- 1970 -->
      <g transform="translate(159.576846 271.520312)scale(0.1 -0.1)">
       <defs>
        <path id="DejaVuSans-37" d="M 525 4666 
L 3525 4666 
L 3525 4397 
L 1831 0 
L 1172 0 
L 2766 4134 
L 525 4134 
L 525 4666 
z
" transform="scale(0.015625)"/>
       </defs>
       <use xlink:href="#DejaVuSans-31"/>
       <use xlink:href="#DejaVuSans-39" x="63.623047"/>
       <use xlink:href="#DejaVuSans-37" x="127.246094"/>
       <use xlink:href="#DejaVuSans-30" x="190.869141"/>
      </g>
     </g>
    </g>
    <g id="xtick_4">
     <g id="line2d_4"/>
     <g id="text_4">
      <!-- 1980 -->
      <g transform="translate(210.812564 271.520312)scale(0.1 -0.1)">
       <defs>
        <path id="DejaVuSans-38" d="M 2034 2216 
Q 1584 2216 1326 1975 
Q 1069 1734 1069 1313 
Q 1069 891 1326 650 
Q 1584 409 2034 409 
Q 2484 409 2743 651 
Q 3003 894 3003 1313 
Q 3003 1734 2745 1975 
Q 2488 2216 2034 2216 
z
M 1403 2484 
Q 997 2584 770 2862 
Q 544 3141 544 3541 
Q 544 4100 942 4425 
Q 1341 4750 2034 4750 
Q 2731 4750 3128 4425 
Q 3525 4100 3525 3541 
Q 3525 3141 3298 2862 
Q 3072 2584 2669 2484 
Q 3125 2378 3379 2068 
Q 3634 1759 3634 1313 
Q 3634 634 3220 271 
Q 2806 -91 2034 -91 
Q 1263 -91 848 271 
Q 434 634 434 1313 
Q 434 1759 690 2068 
Q 947 2378 1403 2484 
z
M 1172 3481 
Q 1172 3119 1398 2916 
Q 1625 2713 2034 2713 
Q 2441 2713 2670 2916 
Q 2900 3119 2900 3481 
Q 2900 3844 2670 4047 
Q 2441 4250 2034 4250 
Q 1625 4250 1398 4047 
Q 1172 3844 1172 3481 
z
" transform="scale(0.015625)"/>
       </defs>
       <use xlink:href="#DejaVuSans-31"/>
       <use xlink:href="#DejaVuSans-39" x="63.623047"/>
       <use xlink:href="#DejaVuSans-38" x="127.246094"/>
       <use xlink:href="#DejaVuSans-30" x="190.869141"/>
      </g>
     </g>
    </g>
    <g id="xtick_5">
     <g id="line2d_5"/>
     <g id="text_5">
      <!-- 1990 -->
      <g transform="translate(262.048283 271.520312)scale(0.1 -0.1)">
       <use xlink:href="#DejaVuSans-31"/>
       <use xlink:href="#DejaVuSans-39" x="63.623047"/>
       <use xlink:href="#DejaVuSans-39" x="127.246094"/>
       <use xlink:href="#DejaVuSans-30" x="190.869141"/>
      </g>
     </g>
    </g>
    <g id="xtick_6">
     <g id="line2d_6"/>
     <g id="text_6">
      <!-- 2000 -->
      <g transform="translate(313.284001 271.520312)scale(0.1 -0.1)">
       <defs>
        <path id="DejaVuSans-32" d="M 1228 531 
L 3431 531 
L 3431 0 
L 469 0 
L 469 531 
Q 828 903 1448 1529 
Q 2069 2156 2228 2338 
Q 2531 2678 2651 2914 
Q 2772 3150 2772 3378 
Q 2772 3750 2511 3984 
Q 2250 4219 1831 4219 
Q 1534 4219 1204 4116 
Q 875 4013 500 3803 
L 500 4441 
Q 881 4594 1212 4672 
Q 1544 4750 1819 4750 
Q 2544 4750 2975 4387 
Q 3406 4025 3406 3419 
Q 3406 3131 3298 2873 
Q 3191 2616 2906 2266 
Q 2828 2175 2409 1742 
Q 1991 1309 1228 531 
z
" transform="scale(0.015625)"/>
       </defs>
       <use xlink:href="#DejaVuSans-32"/>
       <use xlink:href="#DejaVuSans-30" x="63.623047"/>
       <use xlink:href="#DejaVuSans-30" x="127.246094"/>
       <use xlink:href="#DejaVuSans-30" x="190.869141"/>
      </g>
     </g>
    </g>
    <g id="xtick_7">
     <g id="line2d_7"/>
     <g id="text_7">
      <!-- 2010 -->
      <g transform="translate(364.51972 271.520312)scale(0.1 -0.1)">
       <use xlink:href="#DejaVuSans-32"/>
       <use xlink:href="#DejaVuSans-30" x="63.623047"/>
       <use xlink:href="#DejaVuSans-31" x="127.246094"/>
       <use xlink:href="#DejaVuSans-30" x="190.869141"/>
      </g>
     </g>
    </g>
    <g id="xtick_8">
     <g id="line2d_8"/>
     <g id="text_8">
      <!-- 2020 -->
      <g transform="translate(415.755438 271.520312)scale(0.1 -0.1)">
       <use xlink:href="#DejaVuSans-32"/>
       <use xlink:href="#DejaVuSans-30" x="63.623047"/>
       <use xlink:href="#DejaVuSans-32" x="127.246094"/>
       <use xlink:href="#DejaVuSans-30" x="190.869141"/>
      </g>
     </g>
    </g>
   </g>
   <g id="matplotlib.axis_2">
    <g id="ytick_1">
     <g id="line2d_9"/>
     <g id="text_9">
      <!-- 0 -->
      <g transform="translate(39.0125 264.221094)scale(0.1 -0.1)">
       <use xlink:href="#DejaVuSans-30"/>
      </g>
     </g>
    </g>
    <g id="ytick_2">
     <g id="line2d_10"/>
     <g id="text_10">
      <!-- 20000 -->
      <g transform="translate(13.5625 229.905669)scale(0.1 -0.1)">
       <use xlink:href="#DejaVuSans-32"/>
       <use xlink:href="#DejaVuSans-30" x="63.623047"/>
       <use xlink:href="#DejaVuSans-30" x="127.246094"/>
       <use xlink:href="#DejaVuSans-30" x="190.869141"/>
       <use xlink:href="#DejaVuSans-30" x="254.492188"/>
      </g>
     </g>
    </g>
    <g id="ytick_3">
     <g id="line2d_11"/>
     <g id="text_11">
      <!-- 40000 -->
      <g transform="translate(13.5625 195.590243)scale(0.1 -0.1)">
       <defs>
        <path id="DejaVuSans-34" d="M 2419 4116 
L 825 1625 
L 2419 1625 
L 2419 4116 
z
M 2253 4666 
L 3047 4666 
L 3047 1625 
L 3713 1625 
L 3713 1100 
L 3047 1100 
L 3047 0 
L 2419 0 
L 2419 1100 
L 313 1100 
L 313 1709 
L 2253 4666 
z
" transform="scale(0.015625)"/>
       </defs>
       <use xlink:href="#DejaVuSans-34"/>
       <use xlink:href="#DejaVuSans-30" x="63.623047"/>
       <use xlink:href="#DejaVuSans-30" x="127.246094"/>
       <use xlink:href="#DejaVuSans-30" x="190.869141"/>
       <use xlink:href="#DejaVuSans-30" x="254.492188"/>
      </g>
     </g>
    </g>
    <g id="ytick_4">
     <g id="line2d_12"/>
     <g id="text_12">
      <!-- 60000 -->
      <g transform="translate(13.5625 161.274818)scale(0.1 -0.1)">
       <use xlink:href="#DejaVuSans-36"/>
       <use xlink:href="#DejaVuSans-30" x="63.623047"/>
       <use xlink:href="#DejaVuSans-30" x="127.246094"/>
       <use xlink:href="#DejaVuSans-30" x="190.869141"/>
       <use xlink:href="#DejaVuSans-30" x="254.492188"/>
      </g>
     </g>
    </g>
    <g id="ytick_5">
     <g id="line2d_13"/>
     <g id="text_13">
      <!-- 80000 -->
      <g transform="translate(13.5625 126.959393)scale(0.1 -0.1)">
       <use xlink:href="#DejaVuSans-38"/>
       <use xlink:href="#DejaVuSans-30" x="63.623047"/>
       <use xlink:href="#DejaVuSans-30" x="127.246094"/>
       <use xlink:href="#DejaVuSans-30" x="190.869141"/>
       <use xlink:href="#DejaVuSans-30" x="254.492188"/>
      </g>
     </g>
    </g>
    <g id="ytick_6">
     <g id="line2d_14"/>
     <g id="text_14">
      <!-- 100000 -->
      <g transform="translate(7.2 92.643968)scale(0.1 -0.1)">
       <use xlink:href="#DejaVuSans-31"/>
       <use xlink:href="#DejaVuSans-30" x="63.623047"/>
       <use xlink:href="#DejaVuSans-30" x="127.246094"/>
       <use xlink:href="#DejaVuSans-30" x="190.869141"/>
       <use xlink:href="#DejaVuSans-30" x="254.492188"/>
       <use xlink:href="#DejaVuSans-30" x="318.115234"/>
      </g>
     </g>
    </g>
    <g id="ytick_7">
     <g id="line2d_15"/>
     <g id="text_15">
      <!-- 120000 -->
      <g transform="translate(7.2 58.328543)scale(0.1 -0.1)">
       <use xlink:href="#DejaVuSans-31"/>
       <use xlink:href="#DejaVuSans-32" x="63.623047"/>
       <use xlink:href="#DejaVuSans-30" x="127.246094"/>
       <use xlink:href="#DejaVuSans-30" x="190.869141"/>
       <use xlink:href="#DejaVuSans-30" x="254.492188"/>
       <use xlink:href="#DejaVuSans-30" x="318.115234"/>
      </g>
     </g>
    </g>
   </g>
   <g id="patch_3">
    <path d="M 67.78098 260.421875 
L 71.879838 260.421875 
L 71.879838 231.652998 
L 67.78098 231.652998 
z
" clip-path="url(#pb60dd37dba)" style="fill: #d3d3d3"/>
   </g>
   <g id="patch_4">
    <path d="M 72.904552 260.421875 
L 77.003409 260.421875 
L 77.003409 232.024778 
L 72.904552 232.024778 
z
" clip-path="url(#pb60dd37dba)" style="fill: #d3d3d3"/>
   </g>
   <g id="patch_5">
    <path d="M 78.028124 260.421875 
L 82.126981 260.421875 
L 82.126981 232.261114 
L 78.028124 232.261114 
z
" clip-path="url(#pb60dd37dba)" style="fill: #d3d3d3"/>
   </g>
   <g id="patch_6">
    <path d="M 83.151696 260.421875 
L 87.250553 260.421875 
L 87.250553 230.391059 
L 83.151696 230.391059 
z
" clip-path="url(#pb60dd37dba)" style="fill: #d3d3d3"/>
   </g>
   <g id="patch_7">
    <path d="M 88.275267 260.421875 
L 92.374125 260.421875 
L 92.374125 229.197569 
L 88.275267 229.197569 
z
" clip-path="url(#pb60dd37dba)" style="fill: #d3d3d3"/>
   </g>
   <g id="patch_8">
    <path d="M 93.398839 260.421875 
L 97.497697 260.421875 
L 97.497697 213.825541 
L 93.398839 213.825541 
z
" clip-path="url(#pb60dd37dba)" style="fill: #d3d3d3"/>
   </g>
   <g id="patch_9">
    <path d="M 98.522411 260.421875 
L 102.621269 260.421875 
L 102.621269 214.145713 
L 98.522411 214.145713 
z
" clip-path="url(#pb60dd37dba)" style="fill: #d3d3d3"/>
   </g>
   <g id="patch_10">
    <path d="M 103.645983 260.421875 
L 107.744841 260.421875 
L 107.744841 212.787588 
L 103.645983 212.787588 
z
" clip-path="url(#pb60dd37dba)" style="fill: #d3d3d3"/>
   </g>
   <g id="patch_11">
    <path d="M 108.769555 260.421875 
L 112.868412 260.421875 
L 112.868412 205.844485 
L 108.769555 205.844485 
z
" clip-path="url(#pb60dd37dba)" style="fill: #d3d3d3"/>
   </g>
   <g id="patch_12">
    <path d="M 113.893127 260.421875 
L 117.991984 260.421875 
L 117.991984 212.329344 
L 113.893127 212.329344 
z
" clip-path="url(#pb60dd37dba)" style="fill: #d3d3d3"/>
   </g>
   <g id="patch_13">
    <path d="M 119.016699 260.421875 
L 123.115556 260.421875 
L 123.115556 194.393573 
L 119.016699 194.393573 
z
" clip-path="url(#pb60dd37dba)" style="fill: #d3d3d3"/>
   </g>
   <g id="patch_14">
    <path d="M 124.14027 260.421875 
L 128.239128 260.421875 
L 128.239128 243.330085 
L 124.14027 243.330085 
z
" clip-path="url(#pb60dd37dba)" style="fill: #d3d3d3"/>
   </g>
   <g id="patch_15">
    <path d="M 129.263842 260.421875 
L 133.3627 260.421875 
L 133.3627 219.146764 
L 129.263842 219.146764 
z
" clip-path="url(#pb60dd37dba)" style="fill: #d3d3d3"/>
   </g>
   <g id="patch_16">
    <path d="M 134.387414 260.421875 
L 138.486272 260.421875 
L 138.486272 213.457397 
L 134.387414 213.457397 
z
" clip-path="url(#pb60dd37dba)" style="fill: #d3d3d3"/>
   </g>
   <g id="patch_17">
    <path d="M 139.510986 260.421875 
L 143.609843 260.421875 
L 143.609843 237.624058 
L 139.510986 237.624058 
z
" clip-path="url(#pb60dd37dba)" style="fill: #d3d3d3"/>
   </g>
   <g id="patch_18">
    <path d="M 144.634558 260.421875 
L 148.733415 260.421875 
L 148.733415 222.789499 
L 144.634558 222.789499 
z
" clip-path="url(#pb60dd37dba)" style="fill: #d3d3d3"/>
   </g>
   <g id="patch_19">
    <path d="M 149.75813 260.421875 
L 153.856987 260.421875 
L 153.856987 239.31813 
L 149.75813 239.31813 
z
" clip-path="url(#pb60dd37dba)" style="fill: #d3d3d3"/>
   </g>
   <g id="patch_20">
    <path d="M 154.881702 260.421875 
L 158.980559 260.421875 
L 158.980559 203.171497 
L 154.881702 203.171497 
z
" clip-path="url(#pb60dd37dba)" style="fill: #d3d3d3"/>
   </g>
   <g id="patch_21">
    <path d="M 160.005273 260.421875 
L 164.104131 260.421875 
L 164.104131 223.24261 
L 160.005273 223.24261 
z
" clip-path="url(#pb60dd37dba)" style="fill: #d3d3d3"/>
   </g>
   <g id="patch_22">
    <path d="M 165.128845 260.421875 
L 169.227703 260.421875 
L 169.227703 222.358462 
L 165.128845 222.358462 
z
" clip-path="url(#pb60dd37dba)" style="fill: #d3d3d3"/>
   </g>
   <g id="patch_23">
    <path d="M 170.252417 260.421875 
L 174.351275 260.421875 
L 174.351275 220.982877 
L 170.252417 220.982877 
z
" clip-path="url(#pb60dd37dba)" style="fill: #d3d3d3"/>
   </g>
   <g id="patch_24">
    <path d="M 175.375989 260.421875 
L 179.474846 260.421875 
L 179.474846 225.968538 
L 175.375989 225.968538 
z
" clip-path="url(#pb60dd37dba)" style="fill: #d3d3d3"/>
   </g>
   <g id="patch_25">
    <path d="M 180.499561 260.421875 
L 184.598418 260.421875 
L 184.598418 213.089005 
L 180.499561 213.089005 
z
" clip-path="url(#pb60dd37dba)" style="fill: #d3d3d3"/>
   </g>
   <g id="patch_26">
    <path d="M 185.623133 260.421875 
L 189.72199 260.421875 
L 189.72199 205.706765 
L 185.623133 205.706765 
z
" clip-path="url(#pb60dd37dba)" style="fill: #d3d3d3"/>
   </g>
   <g id="patch_27">
    <path d="M 190.746704 260.421875 
L 194.845562 260.421875 
L 194.845562 206.962681 
L 190.746704 206.962681 
z
" clip-path="url(#pb60dd37dba)" style="fill: #d3d3d3"/>
   </g>
   <g id="patch_28">
    <path d="M 195.870276 260.421875 
L 199.969134 260.421875 
L 199.969134 208.15817 
L 195.870276 208.15817 
z
" clip-path="url(#pb60dd37dba)" style="fill: #d3d3d3"/>
   </g>
   <g id="patch_29">
    <path d="M 200.993848 260.421875 
L 205.092706 260.421875 
L 205.092706 157.133277 
L 200.993848 157.133277 
z
" clip-path="url(#pb60dd37dba)" style="fill: #d3d3d3"/>
   </g>
   <g id="patch_30">
    <path d="M 206.11742 260.421875 
L 210.216277 260.421875 
L 210.216277 157.545579 
L 206.11742 157.545579 
z
" clip-path="url(#pb60dd37dba)" style="fill: #d3d3d3"/>
   </g>
   <g id="patch_31">
    <path d="M 211.240992 260.421875 
L 215.339849 260.421875 
L 215.339849 170.352693 
L 211.240992 170.352693 
z
" clip-path="url(#pb60dd37dba)" style="fill: #d3d3d3"/>
   </g>
   <g id="patch_32">
    <path d="M 216.364564 260.421875 
L 220.463421 260.421875 
L 220.463421 178.014418 
L 216.364564 178.014418 
z
" clip-path="url(#pb60dd37dba)" style="fill: #d3d3d3"/>
   </g>
   <g id="patch_33">
    <path d="M 221.488136 260.421875 
L 225.586993 260.421875 
L 225.586993 180.201655 
L 221.488136 180.201655 
z
" clip-path="url(#pb60dd37dba)" style="fill: #d3d3d3"/>
   </g>
   <g id="patch_34">
    <path d="M 226.611707 260.421875 
L 230.710565 260.421875 
L 230.710565 190.983111 
L 226.611707 190.983111 
z
" clip-path="url(#pb60dd37dba)" style="fill: #d3d3d3"/>
   </g>
   <g id="patch_35">
    <path d="M 231.735279 260.421875 
L 235.834137 260.421875 
L 235.834137 165.693517 
L 231.735279 165.693517 
z
" clip-path="url(#pb60dd37dba)" style="fill: #d3d3d3"/>
   </g>
   <g id="patch_36">
    <path d="M 236.858851 260.421875 
L 240.957709 260.421875 
L 240.957709 180.049586 
L 236.858851 180.049586 
z
" clip-path="url(#pb60dd37dba)" style="fill: #d3d3d3"/>
   </g>
   <g id="patch_37">
    <path d="M 241.982423 260.421875 
L 246.08128 260.421875 
L 246.08128 192.709415 
L 241.982423 192.709415 
z
" clip-path="url(#pb60dd37dba)" style="fill: #d3d3d3"/>
   </g>
   <g id="patch_38">
    <path d="M 247.105995 260.421875 
L 251.204852 260.421875 
L 251.204852 178.124627 
L 247.105995 178.124627 
z
" clip-path="url(#pb60dd37dba)" style="fill: #d3d3d3"/>
   </g>
   <g id="patch_39">
    <path d="M 252.229567 260.421875 
L 256.328424 260.421875 
L 256.328424 171.854785 
L 252.229567 171.854785 
z
" clip-path="url(#pb60dd37dba)" style="fill: #d3d3d3"/>
   </g>
   <g id="patch_40">
    <path d="M 257.353138 260.421875 
L 261.451996 260.421875 
L 261.451996 159.84339 
L 257.353138 159.84339 
z
" clip-path="url(#pb60dd37dba)" style="fill: #d3d3d3"/>
   </g>
   <g id="patch_41">
    <path d="M 262.47671 260.421875 
L 266.575568 260.421875 
L 266.575568 164.00667 
L 262.47671 164.00667 
z
" clip-path="url(#pb60dd37dba)" style="fill: #d3d3d3"/>
   </g>
   <g id="patch_42">
    <path d="M 267.600282 260.421875 
L 271.69914 260.421875 
L 271.69914 163.753388 
L 267.600282 163.753388 
z
" clip-path="url(#pb60dd37dba)" style="fill: #d3d3d3"/>
   </g>
   <g id="patch_43">
    <path d="M 272.723854 260.421875 
L 276.822711 260.421875 
L 276.822711 150.332163 
L 272.723854 150.332163 
z
" clip-path="url(#pb60dd37dba)" style="fill: #d3d3d3"/>
   </g>
   <g id="patch_44">
    <path d="M 277.847426 260.421875 
L 281.946283 260.421875 
L 281.946283 152.008868 
L 277.847426 152.008868 
z
" clip-path="url(#pb60dd37dba)" style="fill: #d3d3d3"/>
   </g>
   <g id="patch_45">
    <path d="M 282.970998 260.421875 
L 287.069855 260.421875 
L 287.069855 143.400411 
L 282.970998 143.400411 
z
" clip-path="url(#pb60dd37dba)" style="fill: #d3d3d3"/>
   </g>
   <g id="patch_46">
    <path d="M 288.09457 260.421875 
L 292.193427 260.421875 
L 292.193427 164.603223 
L 288.09457 164.603223 
z
" clip-path="url(#pb60dd37dba)" style="fill: #d3d3d3"/>
   </g>
   <g id="patch_47">
    <path d="M 293.218141 260.421875 
L 297.316999 260.421875 
L 297.316999 148.139237 
L 293.218141 148.139237 
z
" clip-path="url(#pb60dd37dba)" style="fill: #d3d3d3"/>
   </g>
   <g id="patch_48">
    <path d="M 298.341713 260.421875 
L 302.440571 260.421875 
L 302.440571 173.641908 
L 298.341713 173.641908 
z
" clip-path="url(#pb60dd37dba)" style="fill: #d3d3d3"/>
   </g>
   <g id="patch_49">
    <path d="M 303.465285 260.421875 
L 307.564143 260.421875 
L 307.564143 164.457727 
L 303.465285 164.457727 
z
" clip-path="url(#pb60dd37dba)" style="fill: #d3d3d3"/>
   </g>
   <g id="patch_50">
    <path d="M 308.588857 260.421875 
L 312.687714 260.421875 
L 312.687714 150.896986 
L 308.588857 150.896986 
z
" clip-path="url(#pb60dd37dba)" style="fill: #d3d3d3"/>
   </g>
   <g id="patch_51">
    <path d="M 313.712429 260.421875 
L 317.811286 260.421875 
L 317.811286 168.057803 
L 313.712429 168.057803 
z
" clip-path="url(#pb60dd37dba)" style="fill: #d3d3d3"/>
   </g>
   <g id="patch_52">
    <path d="M 318.836001 260.421875 
L 322.934858 260.421875 
L 322.934858 164.978195 
L 318.836001 164.978195 
z
" clip-path="url(#pb60dd37dba)" style="fill: #d3d3d3"/>
   </g>
   <g id="patch_53">
    <path d="M 323.959572 260.421875 
L 328.05843 260.421875 
L 328.05843 147.961576 
L 323.959572 147.961576 
z
" clip-path="url(#pb60dd37dba)" style="fill: #d3d3d3"/>
   </g>
   <g id="patch_54">
    <path d="M 329.083144 260.421875 
L 333.182002 260.421875 
L 333.182002 142.642887 
L 329.083144 142.642887 
z
" clip-path="url(#pb60dd37dba)" style="fill: #d3d3d3"/>
   </g>
   <g id="patch_55">
    <path d="M 334.206716 260.421875 
L 338.305574 260.421875 
L 338.305574 142.888116 
L 334.206716 142.888116 
z
" clip-path="url(#pb60dd37dba)" style="fill: #d3d3d3"/>
   </g>
   <g id="patch_56">
    <path d="M 339.330288 260.421875 
L 343.429145 260.421875 
L 343.429145 144.042593 
L 339.330288 144.042593 
z
" clip-path="url(#pb60dd37dba)" style="fill: #d3d3d3"/>
   </g>
   <g id="patch_57">
    <path d="M 344.45386 260.421875 
L 348.552717 260.421875 
L 348.552717 148.319341 
L 344.45386 148.319341 
z
" clip-path="url(#pb60dd37dba)" style="fill: #d3d3d3"/>
   </g>
   <g id="patch_58">
    <path d="M 349.577432 260.421875 
L 353.676289 260.421875 
L 353.676289 144.115851 
L 349.577432 144.115851 
z
" clip-path="url(#pb60dd37dba)" style="fill: #d3d3d3"/>
   </g>
   <g id="patch_59">
    <path d="M 354.701004 260.421875 
L 358.799861 260.421875 
L 358.799861 125.813899 
L 354.701004 125.813899 
z
" clip-path="url(#pb60dd37dba)" style="fill: #d3d3d3"/>
   </g>
   <g id="patch_60">
    <path d="M 359.824575 260.421875 
L 363.923433 260.421875 
L 363.923433 145.413448 
L 359.824575 145.413448 
z
" clip-path="url(#pb60dd37dba)" style="fill: #d3d3d3"/>
   </g>
   <g id="patch_61">
    <path d="M 364.948147 260.421875 
L 369.047005 260.421875 
L 369.047005 132.366537 
L 364.948147 132.366537 
z
" clip-path="url(#pb60dd37dba)" style="fill: #d3d3d3"/>
   </g>
   <g id="patch_62">
    <path d="M 370.071719 260.421875 
L 374.170577 260.421875 
L 374.170577 126.615187 
L 370.071719 126.615187 
z
" clip-path="url(#pb60dd37dba)" style="fill: #d3d3d3"/>
   </g>
   <g id="patch_63">
    <path d="M 375.195291 260.421875 
L 379.294148 260.421875 
L 379.294148 89.813114 
L 375.195291 89.813114 
z
" clip-path="url(#pb60dd37dba)" style="fill: #d3d3d3"/>
   </g>
   <g id="patch_64">
    <path d="M 380.318863 260.421875 
L 384.41772 260.421875 
L 384.41772 135.826804 
L 380.318863 135.826804 
z
" clip-path="url(#pb60dd37dba)" style="fill: #d3d3d3"/>
   </g>
   <g id="patch_65">
    <path d="M 385.442435 260.421875 
L 389.541292 260.421875 
L 389.541292 117.745096 
L 385.442435 117.745096 
z
" clip-path="url(#pb60dd37dba)" style="fill: #d3d3d3"/>
   </g>
   <g id="patch_66">
    <path d="M 390.566006 260.421875 
L 394.664864 260.421875 
L 394.664864 120.904604 
L 390.566006 120.904604 
z
" clip-path="url(#pb60dd37dba)" style="fill: #d3d3d3"/>
   </g>
   <g id="patch_67">
    <path d="M 395.689578 260.421875 
L 399.788436 260.421875 
L 399.788436 87.860546 
L 395.689578 87.860546 
z
" clip-path="url(#pb60dd37dba)" style="fill: #d3d3d3"/>
   </g>
   <g id="patch_68">
    <path d="M 400.81315 260.421875 
L 404.912008 260.421875 
L 404.912008 99.535174 
L 400.81315 99.535174 
z
" clip-path="url(#pb60dd37dba)" style="fill: #d3d3d3"/>
   </g>
   <g id="patch_69">
    <path d="M 405.936722 260.421875 
L 410.035579 260.421875 
L 410.035579 90.440963 
L 405.936722 90.440963 
z
" clip-path="url(#pb60dd37dba)" style="fill: #d3d3d3"/>
   </g>
   <g id="patch_70">
    <path d="M 411.060294 260.421875 
L 415.159151 260.421875 
L 415.159151 105.741169 
L 411.060294 105.741169 
z
" clip-path="url(#pb60dd37dba)" style="fill: #d3d3d3"/>
   </g>
   <g id="patch_71">
    <path d="M 416.183866 260.421875 
L 420.282723 260.421875 
L 420.282723 80.786522 
L 416.183866 80.786522 
z
" clip-path="url(#pb60dd37dba)" style="fill: #d3d3d3"/>
   </g>
   <g id="patch_72">
    <path d="M 421.307438 260.421875 
L 425.406295 260.421875 
L 425.406295 78.343261 
L 421.307438 78.343261 
z
" clip-path="url(#pb60dd37dba)" style="fill: #d3d3d3"/>
   </g>
   <g id="patch_73">
    <path d="M 426.431009 260.421875 
L 430.529867 260.421875 
L 430.529867 229.369486 
L 426.431009 229.369486 
z
" clip-path="url(#pb60dd37dba)" style="fill: #d3d3d3"/>
   </g>
   <g id="patch_74">
    <path d="M 431.554581 260.421875 
L 435.653439 260.421875 
L 435.653439 161.826725 
L 431.554581 161.826725 
z
" clip-path="url(#pb60dd37dba)" style="fill: #d3d3d3"/>
   </g>
   <g id="patch_75">
    <path d="M 436.678153 260.421875 
L 440.777011 260.421875 
L 440.777011 61.154366 
L 436.678153 61.154366 
z
" clip-path="url(#pb60dd37dba)" style="fill: #d3d3d3"/>
   </g>
   <g id="patch_76">
    <path d="M 441.801725 260.421875 
L 445.900582 260.421875 
L 445.900582 33.656399 
L 441.801725 33.656399 
z
" clip-path="url(#pb60dd37dba)" style="fill: #d3d3d3"/>
   </g>
   <g id="patch_77">
    <path d="M 48.875 260.421875 
L 48.875 22.318125 
" style="fill: none; stroke: #000000; stroke-width: 0.8; stroke-linejoin: miter; stroke-linecap: square"/>
   </g>
   <g id="patch_78">
    <path d="M 464.806562 260.421875 
L 464.806562 22.318125 
" style="fill: none; stroke: #000000; stroke-width: 0.8; stroke-linejoin: miter; stroke-linecap: square"/>
   </g>
   <g id="patch_79">
    <path d="M 48.875 260.421875 
L 464.806562 260.421875 
" style="fill: none; stroke: #000000; stroke-width: 0.8; stroke-linejoin: miter; stroke-linecap: square"/>
   </g>
   <g id="patch_80">
    <path d="M 48.875 22.318125 
L 464.806562 22.318125 
" style="fill: none; stroke: #000000; stroke-width: 0.8; stroke-linejoin: miter; stroke-linecap: square"/>
   </g>
   <g id="text_16">
    <!-- Stále delší seriál -->
    <g transform="translate(207.575156 16.318125)scale(0.12 -0.12)">
     <defs>
      <path id="DejaVuSans-53" d="M 3425 4513 
L 3425 3897 
Q 3066 4069 2747 4153 
Q 2428 4238 2131 4238 
Q 1616 4238 1336 4038 
Q 1056 3838 1056 3469 
Q 1056 3159 1242 3001 
Q 1428 2844 1947 2747 
L 2328 2669 
Q 3034 2534 3370 2195 
Q 3706 1856 3706 1288 
Q 3706 609 3251 259 
Q 2797 -91 1919 -91 
Q 1588 -91 1214 -16 
Q 841 59 441 206 
L 441 856 
Q 825 641 1194 531 
Q 1563 422 1919 422 
Q 2459 422 2753 634 
Q 3047 847 3047 1241 
Q 3047 1584 2836 1778 
Q 2625 1972 2144 2069 
L 1759 2144 
Q 1053 2284 737 2584 
Q 422 2884 422 3419 
Q 422 4038 858 4394 
Q 1294 4750 2059 4750 
Q 2388 4750 2728 4690 
Q 3069 4631 3425 4513 
z
" transform="scale(0.015625)"/>
      <path id="DejaVuSans-74" d="M 1172 4494 
L 1172 3500 
L 2356 3500 
L 2356 3053 
L 1172 3053 
L 1172 1153 
Q 1172 725 1289 603 
Q 1406 481 1766 481 
L 2356 481 
L 2356 0 
L 1766 0 
Q 1100 0 847 248 
Q 594 497 594 1153 
L 594 3053 
L 172 3053 
L 172 3500 
L 594 3500 
L 594 4494 
L 1172 4494 
z
" transform="scale(0.015625)"/>
      <path id="DejaVuSans-e1" d="M 2194 1759 
Q 1497 1759 1228 1600 
Q 959 1441 959 1056 
Q 959 750 1161 570 
Q 1363 391 1709 391 
Q 2188 391 2477 730 
Q 2766 1069 2766 1631 
L 2766 1759 
L 2194 1759 
z
M 3341 1997 
L 3341 0 
L 2766 0 
L 2766 531 
Q 2569 213 2275 61 
Q 1981 -91 1556 -91 
Q 1019 -91 701 211 
Q 384 513 384 1019 
Q 384 1609 779 1909 
Q 1175 2209 1959 2209 
L 2766 2209 
L 2766 2266 
Q 2766 2663 2505 2880 
Q 2244 3097 1772 3097 
Q 1472 3097 1187 3025 
Q 903 2953 641 2809 
L 641 3341 
Q 956 3463 1253 3523 
Q 1550 3584 1831 3584 
Q 2591 3584 2966 3190 
Q 3341 2797 3341 1997 
z
M 2290 5119 
L 2912 5119 
L 1894 3944 
L 1415 3944 
L 2290 5119 
z
" transform="scale(0.015625)"/>
      <path id="DejaVuSans-6c" d="M 603 4863 
L 1178 4863 
L 1178 0 
L 603 0 
L 603 4863 
z
" transform="scale(0.015625)"/>
      <path id="DejaVuSans-65" d="M 3597 1894 
L 3597 1613 
L 953 1613 
Q 991 1019 1311 708 
Q 1631 397 2203 397 
Q 2534 397 2845 478 
Q 3156 559 3463 722 
L 3463 178 
Q 3153 47 2828 -22 
Q 2503 -91 2169 -91 
Q 1331 -91 842 396 
Q 353 884 353 1716 
Q 353 2575 817 3079 
Q 1281 3584 2069 3584 
Q 2775 3584 3186 3129 
Q 3597 2675 3597 1894 
z
M 3022 2063 
Q 3016 2534 2758 2815 
Q 2500 3097 2075 3097 
Q 1594 3097 1305 2825 
Q 1016 2553 972 2059 
L 3022 2063 
z
" transform="scale(0.015625)"/>
      <path id="DejaVuSans-20" transform="scale(0.015625)"/>
      <path id="DejaVuSans-64" d="M 2906 2969 
L 2906 4863 
L 3481 4863 
L 3481 0 
L 2906 0 
L 2906 525 
Q 2725 213 2448 61 
Q 2172 -91 1784 -91 
Q 1150 -91 751 415 
Q 353 922 353 1747 
Q 353 2572 751 3078 
Q 1150 3584 1784 3584 
Q 2172 3584 2448 3432 
Q 2725 3281 2906 2969 
z
M 947 1747 
Q 947 1113 1208 752 
Q 1469 391 1925 391 
Q 2381 391 2643 752 
Q 2906 1113 2906 1747 
Q 2906 2381 2643 2742 
Q 2381 3103 1925 3103 
Q 1469 3103 1208 2742 
Q 947 2381 947 1747 
z
" transform="scale(0.015625)"/>
      <path id="DejaVuSans-161" d="M 2834 3397 
L 2834 2853 
Q 2591 2978 2328 3040 
Q 2066 3103 1784 3103 
Q 1356 3103 1142 2972 
Q 928 2841 928 2578 
Q 928 2378 1081 2264 
Q 1234 2150 1697 2047 
L 1894 2003 
Q 2506 1872 2764 1633 
Q 3022 1394 3022 966 
Q 3022 478 2636 193 
Q 2250 -91 1575 -91 
Q 1294 -91 989 -36 
Q 684 19 347 128 
L 347 722 
Q 666 556 975 473 
Q 1284 391 1588 391 
Q 1994 391 2212 530 
Q 2431 669 2431 922 
Q 2431 1156 2273 1281 
Q 2116 1406 1581 1522 
L 1381 1569 
Q 847 1681 609 1914 
Q 372 2147 372 2553 
Q 372 3047 722 3315 
Q 1072 3584 1716 3584 
Q 2034 3584 2315 3537 
Q 2597 3491 2834 3397 
z
M 1501 3944 
L 736 5119 
L 1170 5119 
L 1733 4353 
L 2295 5119 
L 2729 5119 
L 1964 3944 
L 1501 3944 
z
M 1720 3584 
L 1720 3584 
z
" transform="scale(0.015625)"/>
      <path id="DejaVuSans-ed" d="M 1322 5119 
L 1944 5119 
L 926 3944 
L 447 3944 
L 1322 5119 
z
M 603 3500 
L 1178 3500 
L 1178 0 
L 603 0 
L 603 3500 
z
M 891 3584 
L 891 3584 
z
" transform="scale(0.015625)"/>
      <path id="DejaVuSans-73" d="M 2834 3397 
L 2834 2853 
Q 2591 2978 2328 3040 
Q 2066 3103 1784 3103 
Q 1356 3103 1142 2972 
Q 928 2841 928 2578 
Q 928 2378 1081 2264 
Q 1234 2150 1697 2047 
L 1894 2003 
Q 2506 1872 2764 1633 
Q 3022 1394 3022 966 
Q 3022 478 2636 193 
Q 2250 -91 1575 -91 
Q 1294 -91 989 -36 
Q 684 19 347 128 
L 347 722 
Q 666 556 975 473 
Q 1284 391 1588 391 
Q 1994 391 2212 530 
Q 2431 669 2431 922 
Q 2431 1156 2273 1281 
Q 2116 1406 1581 1522 
L 1381 1569 
Q 847 1681 609 1914 
Q 372 2147 372 2553 
Q 372 3047 722 3315 
Q 1072 3584 1716 3584 
Q 2034 3584 2315 3537 
Q 2597 3491 2834 3397 
z
" transform="scale(0.015625)"/>
      <path id="DejaVuSans-72" d="M 2631 2963 
Q 2534 3019 2420 3045 
Q 2306 3072 2169 3072 
Q 1681 3072 1420 2755 
Q 1159 2438 1159 1844 
L 1159 0 
L 581 0 
L 581 3500 
L 1159 3500 
L 1159 2956 
Q 1341 3275 1631 3429 
Q 1922 3584 2338 3584 
Q 2397 3584 2469 3576 
Q 2541 3569 2628 3553 
L 2631 2963 
z
" transform="scale(0.015625)"/>
      <path id="DejaVuSans-69" d="M 603 3500 
L 1178 3500 
L 1178 0 
L 603 0 
L 603 3500 
z
M 603 4863 
L 1178 4863 
L 1178 4134 
L 603 4134 
L 603 4863 
z
" transform="scale(0.015625)"/>
     </defs>
     <use xlink:href="#DejaVuSans-53"/>
     <use xlink:href="#DejaVuSans-74" x="63.476562"/>
     <use xlink:href="#DejaVuSans-e1" x="102.685547"/>
     <use xlink:href="#DejaVuSans-6c" x="163.964844"/>
     <use xlink:href="#DejaVuSans-65" x="191.748047"/>
     <use xlink:href="#DejaVuSans-20" x="253.271484"/>
     <use xlink:href="#DejaVuSans-64" x="285.058594"/>
     <use xlink:href="#DejaVuSans-65" x="348.535156"/>
     <use xlink:href="#DejaVuSans-6c" x="410.058594"/>
     <use xlink:href="#DejaVuSans-161" x="437.841797"/>
     <use xlink:href="#DejaVuSans-ed" x="489.941406"/>
     <use xlink:href="#DejaVuSans-20" x="517.724609"/>
     <use xlink:href="#DejaVuSans-73" x="549.511719"/>
     <use xlink:href="#DejaVuSans-65" x="601.611328"/>
     <use xlink:href="#DejaVuSans-72" x="663.134766"/>
     <use xlink:href="#DejaVuSans-69" x="704.248047"/>
     <use xlink:href="#DejaVuSans-e1" x="732.03125"/>
     <use xlink:href="#DejaVuSans-6c" x="793.310547"/>
    </g>
   </g>
   <g id="legend_1">
    <g id="patch_81">
     <path d="M 55.875 45.39625 
L 496.38125 45.39625 
Q 498.38125 45.39625 498.38125 43.39625 
L 498.38125 29.318125 
Q 498.38125 27.318125 496.38125 27.318125 
L 55.875 27.318125 
Q 53.875 27.318125 53.875 29.318125 
L 53.875 43.39625 
Q 53.875 45.39625 55.875 45.39625 
z
" style="fill: #ffffff; opacity: 0.8; stroke: #cccccc; stroke-linejoin: miter"/>
    </g>
    <g id="patch_82">
     <path d="M 57.875 39.316563 
L 77.875 39.316563 
L 77.875 32.316563 
L 57.875 32.316563 
z
" style="fill: #d3d3d3"/>
    </g>
    <g id="text_17">
     <!-- Celková vzdálenost od prvního do posledního závodu mistrovství světa Formule 1 -->
     <g transform="translate(85.875 39.316563)scale(0.1 -0.1)">
      <defs>
       <path id="DejaVuSans-43" d="M 4122 4306 
L 4122 3641 
Q 3803 3938 3442 4084 
Q 3081 4231 2675 4231 
Q 1875 4231 1450 3742 
Q 1025 3253 1025 2328 
Q 1025 1406 1450 917 
Q 1875 428 2675 428 
Q 3081 428 3442 575 
Q 3803 722 4122 1019 
L 4122 359 
Q 3791 134 3420 21 
Q 3050 -91 2638 -91 
Q 1578 -91 968 557 
Q 359 1206 359 2328 
Q 359 3453 968 4101 
Q 1578 4750 2638 4750 
Q 3056 4750 3426 4639 
Q 3797 4528 4122 4306 
z
" transform="scale(0.015625)"/>
       <path id="DejaVuSans-6b" d="M 581 4863 
L 1159 4863 
L 1159 1991 
L 2875 3500 
L 3609 3500 
L 1753 1863 
L 3688 0 
L 2938 0 
L 1159 1709 
L 1159 0 
L 581 0 
L 581 4863 
z
" transform="scale(0.015625)"/>
       <path id="DejaVuSans-6f" d="M 1959 3097 
Q 1497 3097 1228 2736 
Q 959 2375 959 1747 
Q 959 1119 1226 758 
Q 1494 397 1959 397 
Q 2419 397 2687 759 
Q 2956 1122 2956 1747 
Q 2956 2369 2687 2733 
Q 2419 3097 1959 3097 
z
M 1959 3584 
Q 2709 3584 3137 3096 
Q 3566 2609 3566 1747 
Q 3566 888 3137 398 
Q 2709 -91 1959 -91 
Q 1206 -91 779 398 
Q 353 888 353 1747 
Q 353 2609 779 3096 
Q 1206 3584 1959 3584 
z
" transform="scale(0.015625)"/>
       <path id="DejaVuSans-76" d="M 191 3500 
L 800 3500 
L 1894 563 
L 2988 3500 
L 3597 3500 
L 2284 0 
L 1503 0 
L 191 3500 
z
" transform="scale(0.015625)"/>
       <path id="DejaVuSans-7a" d="M 353 3500 
L 3084 3500 
L 3084 2975 
L 922 459 
L 3084 459 
L 3084 0 
L 275 0 
L 275 525 
L 2438 3041 
L 353 3041 
L 353 3500 
z
" transform="scale(0.015625)"/>
       <path id="DejaVuSans-6e" d="M 3513 2113 
L 3513 0 
L 2938 0 
L 2938 2094 
Q 2938 2591 2744 2837 
Q 2550 3084 2163 3084 
Q 1697 3084 1428 2787 
Q 1159 2491 1159 1978 
L 1159 0 
L 581 0 
L 581 3500 
L 1159 3500 
L 1159 2956 
Q 1366 3272 1645 3428 
Q 1925 3584 2291 3584 
Q 2894 3584 3203 3211 
Q 3513 2838 3513 2113 
z
" transform="scale(0.015625)"/>
       <path id="DejaVuSans-70" d="M 1159 525 
L 1159 -1331 
L 581 -1331 
L 581 3500 
L 1159 3500 
L 1159 2969 
Q 1341 3281 1617 3432 
Q 1894 3584 2278 3584 
Q 2916 3584 3314 3078 
Q 3713 2572 3713 1747 
Q 3713 922 3314 415 
Q 2916 -91 2278 -91 
Q 1894 -91 1617 61 
Q 1341 213 1159 525 
z
M 3116 1747 
Q 3116 2381 2855 2742 
Q 2594 3103 2138 3103 
Q 1681 3103 1420 2742 
Q 1159 2381 1159 1747 
Q 1159 1113 1420 752 
Q 1681 391 2138 391 
Q 2594 391 2855 752 
Q 3116 1113 3116 1747 
z
" transform="scale(0.015625)"/>
       <path id="DejaVuSans-68" d="M 3513 2113 
L 3513 0 
L 2938 0 
L 2938 2094 
Q 2938 2591 2744 2837 
Q 2550 3084 2163 3084 
Q 1697 3084 1428 2787 
Q 1159 2491 1159 1978 
L 1159 0 
L 581 0 
L 581 4863 
L 1159 4863 
L 1159 2956 
Q 1366 3272 1645 3428 
Q 1925 3584 2291 3584 
Q 2894 3584 3203 3211 
Q 3513 2838 3513 2113 
z
" transform="scale(0.015625)"/>
       <path id="DejaVuSans-75" d="M 544 1381 
L 544 3500 
L 1119 3500 
L 1119 1403 
Q 1119 906 1312 657 
Q 1506 409 1894 409 
Q 2359 409 2629 706 
Q 2900 1003 2900 1516 
L 2900 3500 
L 3475 3500 
L 3475 0 
L 2900 0 
L 2900 538 
Q 2691 219 2414 64 
Q 2138 -91 1772 -91 
Q 1169 -91 856 284 
Q 544 659 544 1381 
z
M 1991 3584 
L 1991 3584 
z
" transform="scale(0.015625)"/>
       <path id="DejaVuSans-6d" d="M 3328 2828 
Q 3544 3216 3844 3400 
Q 4144 3584 4550 3584 
Q 5097 3584 5394 3201 
Q 5691 2819 5691 2113 
L 5691 0 
L 5113 0 
L 5113 2094 
Q 5113 2597 4934 2840 
Q 4756 3084 4391 3084 
Q 3944 3084 3684 2787 
Q 3425 2491 3425 1978 
L 3425 0 
L 2847 0 
L 2847 2094 
Q 2847 2600 2669 2842 
Q 2491 3084 2119 3084 
Q 1678 3084 1418 2786 
Q 1159 2488 1159 1978 
L 1159 0 
L 581 0 
L 581 3500 
L 1159 3500 
L 1159 2956 
Q 1356 3278 1631 3431 
Q 1906 3584 2284 3584 
Q 2666 3584 2933 3390 
Q 3200 3197 3328 2828 
z
" transform="scale(0.015625)"/>
       <path id="DejaVuSans-11b" d="M 3597 1894 
L 3597 1613 
L 953 1613 
Q 991 1019 1311 708 
Q 1631 397 2203 397 
Q 2534 397 2845 478 
Q 3156 559 3463 722 
L 3463 178 
Q 3153 47 2828 -22 
Q 2503 -91 2169 -91 
Q 1331 -91 842 396 
Q 353 884 353 1716 
Q 353 2575 817 3079 
Q 1281 3584 2069 3584 
Q 2775 3584 3186 3129 
Q 3597 2675 3597 1894 
z
M 3022 2063 
Q 3016 2534 2758 2815 
Q 2500 3097 2075 3097 
Q 1594 3097 1305 2825 
Q 1016 2553 972 2059 
L 3022 2063 
z
M 1833 3944 
L 1067 5119 
L 1502 5119 
L 2064 4353 
L 2627 5119 
L 3061 5119 
L 2295 3944 
L 1833 3944 
z
" transform="scale(0.015625)"/>
       <path id="DejaVuSans-61" d="M 2194 1759 
Q 1497 1759 1228 1600 
Q 959 1441 959 1056 
Q 959 750 1161 570 
Q 1363 391 1709 391 
Q 2188 391 2477 730 
Q 2766 1069 2766 1631 
L 2766 1759 
L 2194 1759 
z
M 3341 1997 
L 3341 0 
L 2766 0 
L 2766 531 
Q 2569 213 2275 61 
Q 1981 -91 1556 -91 
Q 1019 -91 701 211 
Q 384 513 384 1019 
Q 384 1609 779 1909 
Q 1175 2209 1959 2209 
L 2766 2209 
L 2766 2266 
Q 2766 2663 2505 2880 
Q 2244 3097 1772 3097 
Q 1472 3097 1187 3025 
Q 903 2953 641 2809 
L 641 3341 
Q 956 3463 1253 3523 
Q 1550 3584 1831 3584 
Q 2591 3584 2966 3190 
Q 3341 2797 3341 1997 
z
" transform="scale(0.015625)"/>
       <path id="DejaVuSans-46" d="M 628 4666 
L 3309 4666 
L 3309 4134 
L 1259 4134 
L 1259 2759 
L 3109 2759 
L 3109 2228 
L 1259 2228 
L 1259 0 
L 628 0 
L 628 4666 
z
" transform="scale(0.015625)"/>
      </defs>
      <use xlink:href="#DejaVuSans-43"/>
      <use xlink:href="#DejaVuSans-65" x="69.824219"/>
      <use xlink:href="#DejaVuSans-6c" x="131.347656"/>
      <use xlink:href="#DejaVuSans-6b" x="159.130859"/>
      <use xlink:href="#DejaVuSans-6f" x="213.416016"/>
      <use xlink:href="#DejaVuSans-76" x="274.597656"/>
      <use xlink:href="#DejaVuSans-e1" x="333.777344"/>
      <use xlink:href="#DejaVuSans-20" x="395.056641"/>
      <use xlink:href="#DejaVuSans-76" x="426.84375"/>
      <use xlink:href="#DejaVuSans-7a" x="486.023438"/>
      <use xlink:href="#DejaVuSans-64" x="538.513672"/>
      <use xlink:href="#DejaVuSans-e1" x="601.990234"/>
      <use xlink:href="#DejaVuSans-6c" x="663.269531"/>
      <use xlink:href="#DejaVuSans-65" x="691.052734"/>
      <use xlink:href="#DejaVuSans-6e" x="752.576172"/>
      <use xlink:href="#DejaVuSans-6f" x="815.955078"/>
      <use xlink:href="#DejaVuSans-73" x="877.136719"/>
      <use xlink:href="#DejaVuSans-74" x="929.236328"/>
      <use xlink:href="#DejaVuSans-20" x="968.445312"/>
      <use xlink:href="#DejaVuSans-6f" x="1000.232422"/>
      <use xlink:href="#DejaVuSans-64" x="1061.414062"/>
      <use xlink:href="#DejaVuSans-20" x="1124.890625"/>
      <use xlink:href="#DejaVuSans-70" x="1156.677734"/>
      <use xlink:href="#DejaVuSans-72" x="1220.154297"/>
      <use xlink:href="#DejaVuSans-76" x="1261.267578"/>
      <use xlink:href="#DejaVuSans-6e" x="1320.447266"/>
      <use xlink:href="#DejaVuSans-ed" x="1383.826172"/>
      <use xlink:href="#DejaVuSans-68" x="1411.609375"/>
      <use xlink:href="#DejaVuSans-6f" x="1474.988281"/>
      <use xlink:href="#DejaVuSans-20" x="1536.169922"/>
      <use xlink:href="#DejaVuSans-64" x="1567.957031"/>
      <use xlink:href="#DejaVuSans-6f" x="1631.433594"/>
      <use xlink:href="#DejaVuSans-20" x="1692.615234"/>
      <use xlink:href="#DejaVuSans-70" x="1724.402344"/>
      <use xlink:href="#DejaVuSans-6f" x="1787.878906"/>
      <use xlink:href="#DejaVuSans-73" x="1849.060547"/>
      <use xlink:href="#DejaVuSans-6c" x="1901.160156"/>
      <use xlink:href="#DejaVuSans-65" x="1928.943359"/>
      <use xlink:href="#DejaVuSans-64" x="1990.466797"/>
      <use xlink:href="#DejaVuSans-6e" x="2053.943359"/>
      <use xlink:href="#DejaVuSans-ed" x="2117.322266"/>
      <use xlink:href="#DejaVuSans-68" x="2145.105469"/>
      <use xlink:href="#DejaVuSans-6f" x="2208.484375"/>
      <use xlink:href="#DejaVuSans-20" x="2269.666016"/>
      <use xlink:href="#DejaVuSans-7a" x="2301.453125"/>
      <use xlink:href="#DejaVuSans-e1" x="2353.943359"/>
      <use xlink:href="#DejaVuSans-76" x="2415.222656"/>
      <use xlink:href="#DejaVuSans-6f" x="2474.402344"/>
      <use xlink:href="#DejaVuSans-64" x="2535.583984"/>
      <use xlink:href="#DejaVuSans-75" x="2599.060547"/>
      <use xlink:href="#DejaVuSans-20" x="2662.439453"/>
      <use xlink:href="#DejaVuSans-6d" x="2694.226562"/>
      <use xlink:href="#DejaVuSans-69" x="2791.638672"/>
      <use xlink:href="#DejaVuSans-73" x="2819.421875"/>
      <use xlink:href="#DejaVuSans-74" x="2871.521484"/>
      <use xlink:href="#DejaVuSans-72" x="2910.730469"/>
      <use xlink:href="#DejaVuSans-6f" x="2949.59375"/>
      <use xlink:href="#DejaVuSans-76" x="3010.775391"/>
      <use xlink:href="#DejaVuSans-73" x="3069.955078"/>
      <use xlink:href="#DejaVuSans-74" x="3122.054688"/>
      <use xlink:href="#DejaVuSans-76" x="3161.263672"/>
      <use xlink:href="#DejaVuSans-ed" x="3220.443359"/>
      <use xlink:href="#DejaVuSans-20" x="3248.226562"/>
      <use xlink:href="#DejaVuSans-73" x="3280.013672"/>
      <use xlink:href="#DejaVuSans-76" x="3332.113281"/>
      <use xlink:href="#DejaVuSans-11b" x="3391.292969"/>
      <use xlink:href="#DejaVuSans-74" x="3452.816406"/>
      <use xlink:href="#DejaVuSans-61" x="3492.025391"/>
      <use xlink:href="#DejaVuSans-20" x="3553.304688"/>
      <use xlink:href="#DejaVuSans-46" x="3585.091797"/>
      <use xlink:href="#DejaVuSans-6f" x="3638.986328"/>
      <use xlink:href="#DejaVuSans-72" x="3700.167969"/>
      <use xlink:href="#DejaVuSans-6d" x="3739.53125"/>
      <use xlink:href="#DejaVuSans-75" x="3836.943359"/>
      <use xlink:href="#DejaVuSans-6c" x="3900.322266"/>
      <use xlink:href="#DejaVuSans-65" x="3928.105469"/>
      <use xlink:href="#DejaVuSans-20" x="3989.628906"/>
      <use xlink:href="#DejaVuSans-31" x="4021.416016"/>
     </g>
    </g>
   </g>
  </g>
  <g id="axes_2">
   <g id="matplotlib.axis_3">
    <g id="ytick_8">
     <g id="line2d_16">
      <path d="M 48.875 260.421875 
L 464.806562 260.421875 
" clip-path="url(#pb60dd37dba)" style="fill: none; stroke: #b0b0b0; stroke-width: 0.8; stroke-linecap: square"/>
     </g>
     <g id="line2d_17"/>
     <g id="text_18">
      <!-- 0% -->
      <g transform="translate(468.306562 264.221094)scale(0.1 -0.1)">
       <defs>
        <path id="DejaVuSans-25" d="M 4653 2053 
Q 4381 2053 4226 1822 
Q 4072 1591 4072 1178 
Q 4072 772 4226 539 
Q 4381 306 4653 306 
Q 4919 306 5073 539 
Q 5228 772 5228 1178 
Q 5228 1588 5073 1820 
Q 4919 2053 4653 2053 
z
M 4653 2450 
Q 5147 2450 5437 2106 
Q 5728 1763 5728 1178 
Q 5728 594 5436 251 
Q 5144 -91 4653 -91 
Q 4153 -91 3862 251 
Q 3572 594 3572 1178 
Q 3572 1766 3864 2108 
Q 4156 2450 4653 2450 
z
M 1428 4353 
Q 1159 4353 1004 4120 
Q 850 3888 850 3481 
Q 850 3069 1003 2837 
Q 1156 2606 1428 2606 
Q 1700 2606 1854 2837 
Q 2009 3069 2009 3481 
Q 2009 3884 1853 4118 
Q 1697 4353 1428 4353 
z
M 4250 4750 
L 4750 4750 
L 1831 -91 
L 1331 -91 
L 4250 4750 
z
M 1428 4750 
Q 1922 4750 2215 4408 
Q 2509 4066 2509 3481 
Q 2509 2891 2217 2550 
Q 1925 2209 1428 2209 
Q 931 2209 642 2551 
Q 353 2894 353 3481 
Q 353 4063 643 4406 
Q 934 4750 1428 4750 
z
" transform="scale(0.015625)"/>
       </defs>
       <use xlink:href="#DejaVuSans-30"/>
       <use xlink:href="#DejaVuSans-25" x="63.623047"/>
      </g>
     </g>
    </g>
    <g id="ytick_9">
     <g id="line2d_18">
      <path d="M 48.875 211.27331 
L 464.806562 211.27331 
" clip-path="url(#pb60dd37dba)" style="fill: none; stroke: #b0b0b0; stroke-width: 0.8; stroke-linecap: square"/>
     </g>
     <g id="line2d_19"/>
     <g id="text_19">
      <!-- 50% -->
      <g transform="translate(468.306562 215.072529)scale(0.1 -0.1)">
       <use xlink:href="#DejaVuSans-35"/>
       <use xlink:href="#DejaVuSans-30" x="63.623047"/>
       <use xlink:href="#DejaVuSans-25" x="127.246094"/>
      </g>
     </g>
    </g>
    <g id="ytick_10">
     <g id="line2d_20">
      <path d="M 48.875 162.124746 
L 464.806562 162.124746 
" clip-path="url(#pb60dd37dba)" style="fill: none; stroke: #b0b0b0; stroke-width: 0.8; stroke-linecap: square"/>
     </g>
     <g id="line2d_21"/>
     <g id="text_20">
      <!-- 100% -->
      <g transform="translate(468.306562 165.923965)scale(0.1 -0.1)">
       <use xlink:href="#DejaVuSans-31"/>
       <use xlink:href="#DejaVuSans-30" x="63.623047"/>
       <use xlink:href="#DejaVuSans-30" x="127.246094"/>
       <use xlink:href="#DejaVuSans-25" x="190.869141"/>
      </g>
     </g>
    </g>
    <g id="ytick_11">
     <g id="line2d_22">
      <path d="M 48.875 112.976181 
L 464.806562 112.976181 
" clip-path="url(#pb60dd37dba)" style="fill: none; stroke: #b0b0b0; stroke-width: 0.8; stroke-linecap: square"/>
     </g>
     <g id="line2d_23"/>
     <g id="text_21">
      <!-- 150% -->
      <g transform="translate(468.306562 116.7754)scale(0.1 -0.1)">
       <use xlink:href="#DejaVuSans-31"/>
       <use xlink:href="#DejaVuSans-35" x="63.623047"/>
       <use xlink:href="#DejaVuSans-30" x="127.246094"/>
       <use xlink:href="#DejaVuSans-25" x="190.869141"/>
      </g>
     </g>
    </g>
    <g id="ytick_12">
     <g id="line2d_24">
      <path d="M 48.875 63.827617 
L 464.806562 63.827617 
" clip-path="url(#pb60dd37dba)" style="fill: none; stroke: #b0b0b0; stroke-width: 0.8; stroke-linecap: square"/>
     </g>
     <g id="line2d_25"/>
     <g id="text_22">
      <!-- 200% -->
      <g transform="translate(468.306562 67.626835)scale(0.1 -0.1)">
       <use xlink:href="#DejaVuSans-32"/>
       <use xlink:href="#DejaVuSans-30" x="63.623047"/>
       <use xlink:href="#DejaVuSans-30" x="127.246094"/>
       <use xlink:href="#DejaVuSans-25" x="190.869141"/>
      </g>
     </g>
    </g>
   </g>
   <g id="line2d_26">
    <path d="M 69.830409 61.66107 
L 74.953981 69.24383 
L 80.077553 63.947593 
L 85.201124 156.782689 
L 90.324696 156.836584 
L 95.448268 100.413973 
L 100.57184 103.357887 
L 105.695412 106.671329 
L 110.818984 107.908925 
L 115.942555 42.899731 
L 121.066127 99.890555 
L 126.189699 126.1244 
L 131.313271 114.93971 
L 136.436843 122.10468 
L 141.560415 148.83225 
L 146.683987 151.971284 
L 151.807558 147.092543 
L 156.93113 96.369205 
L 162.054702 154.682369 
L 167.178274 148.11508 
L 172.301846 155.639131 
L 177.425418 145.796564 
L 182.548989 157.665813 
L 187.672561 150.725342 
L 192.796133 155.240899 
L 197.919705 154.793683 
L 203.043277 118.880472 
L 208.166849 121.818452 
L 213.290421 119.407017 
L 218.413992 122.949954 
L 223.537564 118.638928 
L 228.661136 94.538661 
L 233.784708 66.453551 
L 238.90828 110.921213 
L 244.031852 127.590178 
L 249.155423 124.608006 
L 254.278995 114.076295 
L 259.402567 110.904219 
L 264.526139 116.911435 
L 269.649711 122.794082 
L 274.773283 102.776398 
L 279.896855 105.84094 
L 285.020426 114.03687 
L 290.143998 132.669174 
L 295.26757 80.042633 
L 300.391142 126.449107 
L 305.514714 127.879445 
L 310.638286 101.352164 
L 315.761857 124.854773 
L 320.885429 130.536535 
L 326.009001 121.306648 
L 331.132573 108.852398 
L 336.256145 109.167983 
L 341.379717 110.647153 
L 346.503289 111.405131 
L 351.62686 123.974173 
L 356.750432 81.550119 
L 361.874004 107.441004 
L 366.997576 83.923874 
L 372.121148 83.358357 
L 377.24472 47.996245 
L 382.368291 87.524877 
L 387.491863 74.422546 
L 392.615435 75.806934 
L 397.739007 55.044991 
L 402.862579 70.35678 
L 407.986151 61.721965 
L 413.109723 78.908001 
L 418.233294 49.330977 
L 423.356866 46.459882 
L 428.480438 63.235247 
L 433.60401 62.398826 
L 438.727582 40.422652 
L 443.851154 28.763253 
" clip-path="url(#pb60dd37dba)" style="fill: none; stroke-dasharray: 1.5,2.475; stroke-dashoffset: 0; stroke: #ff0000; stroke-width: 1.5"/>
    <defs>
     <path id="me8956346a6" d="M -3 3 
L 3 -3 
M -3 -3 
L 3 3 
" style="stroke: #ff0000"/>
    </defs>
    <g clip-path="url(#pb60dd37dba)">
     <use xlink:href="#me8956346a6" x="69.830409" y="61.66107" style="fill: #ff0000; stroke: #ff0000"/>
     <use xlink:href="#me8956346a6" x="74.953981" y="69.24383" style="fill: #ff0000; stroke: #ff0000"/>
     <use xlink:href="#me8956346a6" x="80.077553" y="63.947593" style="fill: #ff0000; stroke: #ff0000"/>
     <use xlink:href="#me8956346a6" x="85.201124" y="156.782689" style="fill: #ff0000; stroke: #ff0000"/>
     <use xlink:href="#me8956346a6" x="90.324696" y="156.836584" style="fill: #ff0000; stroke: #ff0000"/>
     <use xlink:href="#me8956346a6" x="95.448268" y="100.413973" style="fill: #ff0000; stroke: #ff0000"/>
     <use xlink:href="#me8956346a6" x="100.57184" y="103.357887" style="fill: #ff0000; stroke: #ff0000"/>
     <use xlink:href="#me8956346a6" x="105.695412" y="106.671329" style="fill: #ff0000; stroke: #ff0000"/>
     <use xlink:href="#me8956346a6" x="110.818984" y="107.908925" style="fill: #ff0000; stroke: #ff0000"/>
     <use xlink:href="#me8956346a6" x="115.942555" y="42.899731" style="fill: #ff0000; stroke: #ff0000"/>
     <use xlink:href="#me8956346a6" x="121.066127" y="99.890555" style="fill: #ff0000; stroke: #ff0000"/>
     <use xlink:href="#me8956346a6" x="126.189699" y="126.1244" style="fill: #ff0000; stroke: #ff0000"/>
     <use xlink:href="#me8956346a6" x="131.313271" y="114.93971" style="fill: #ff0000; stroke: #ff0000"/>
     <use xlink:href="#me8956346a6" x="136.436843" y="122.10468" style="fill: #ff0000; stroke: #ff0000"/>
     <use xlink:href="#me8956346a6" x="141.560415" y="148.83225" style="fill: #ff0000; stroke: #ff0000"/>
     <use xlink:href="#me8956346a6" x="146.683987" y="151.971284" style="fill: #ff0000; stroke: #ff0000"/>
     <use xlink:href="#me8956346a6" x="151.807558" y="147.092543" style="fill: #ff0000; stroke: #ff0000"/>
     <use xlink:href="#me8956346a6" x="156.93113" y="96.369205" style="fill: #ff0000; stroke: #ff0000"/>
     <use xlink:href="#me8956346a6" x="162.054702" y="154.682369" style="fill: #ff0000; stroke: #ff0000"/>
     <use xlink:href="#me8956346a6" x="167.178274" y="148.11508" style="fill: #ff0000; stroke: #ff0000"/>
     <use xlink:href="#me8956346a6" x="172.301846" y="155.639131" style="fill: #ff0000; stroke: #ff0000"/>
     <use xlink:href="#me8956346a6" x="177.425418" y="145.796564" style="fill: #ff0000; stroke: #ff0000"/>
     <use xlink:href="#me8956346a6" x="182.548989" y="157.665813" style="fill: #ff0000; stroke: #ff0000"/>
     <use xlink:href="#me8956346a6" x="187.672561" y="150.725342" style="fill: #ff0000; stroke: #ff0000"/>
     <use xlink:href="#me8956346a6" x="192.796133" y="155.240899" style="fill: #ff0000; stroke: #ff0000"/>
     <use xlink:href="#me8956346a6" x="197.919705" y="154.793683" style="fill: #ff0000; stroke: #ff0000"/>
     <use xlink:href="#me8956346a6" x="203.043277" y="118.880472" style="fill: #ff0000; stroke: #ff0000"/>
     <use xlink:href="#me8956346a6" x="208.166849" y="121.818452" style="fill: #ff0000; stroke: #ff0000"/>
     <use xlink:href="#me8956346a6" x="213.290421" y="119.407017" style="fill: #ff0000; stroke: #ff0000"/>
     <use xlink:href="#me8956346a6" x="218.413992" y="122.949954" style="fill: #ff0000; stroke: #ff0000"/>
     <use xlink:href="#me8956346a6" x="223.537564" y="118.638928" style="fill: #ff0000; stroke: #ff0000"/>
     <use xlink:href="#me8956346a6" x="228.661136" y="94.538661" style="fill: #ff0000; stroke: #ff0000"/>
     <use xlink:href="#me8956346a6" x="233.784708" y="66.453551" style="fill: #ff0000; stroke: #ff0000"/>
     <use xlink:href="#me8956346a6" x="238.90828" y="110.921213" style="fill: #ff0000; stroke: #ff0000"/>
     <use xlink:href="#me8956346a6" x="244.031852" y="127.590178" style="fill: #ff0000; stroke: #ff0000"/>
     <use xlink:href="#me8956346a6" x="249.155423" y="124.608006" style="fill: #ff0000; stroke: #ff0000"/>
     <use xlink:href="#me8956346a6" x="254.278995" y="114.076295" style="fill: #ff0000; stroke: #ff0000"/>
     <use xlink:href="#me8956346a6" x="259.402567" y="110.904219" style="fill: #ff0000; stroke: #ff0000"/>
     <use xlink:href="#me8956346a6" x="264.526139" y="116.911435" style="fill: #ff0000; stroke: #ff0000"/>
     <use xlink:href="#me8956346a6" x="269.649711" y="122.794082" style="fill: #ff0000; stroke: #ff0000"/>
     <use xlink:href="#me8956346a6" x="274.773283" y="102.776398" style="fill: #ff0000; stroke: #ff0000"/>
     <use xlink:href="#me8956346a6" x="279.896855" y="105.84094" style="fill: #ff0000; stroke: #ff0000"/>
     <use xlink:href="#me8956346a6" x="285.020426" y="114.03687" style="fill: #ff0000; stroke: #ff0000"/>
     <use xlink:href="#me8956346a6" x="290.143998" y="132.669174" style="fill: #ff0000; stroke: #ff0000"/>
     <use xlink:href="#me8956346a6" x="295.26757" y="80.042633" style="fill: #ff0000; stroke: #ff0000"/>
     <use xlink:href="#me8956346a6" x="300.391142" y="126.449107" style="fill: #ff0000; stroke: #ff0000"/>
     <use xlink:href="#me8956346a6" x="305.514714" y="127.879445" style="fill: #ff0000; stroke: #ff0000"/>
     <use xlink:href="#me8956346a6" x="310.638286" y="101.352164" style="fill: #ff0000; stroke: #ff0000"/>
     <use xlink:href="#me8956346a6" x="315.761857" y="124.854773" style="fill: #ff0000; stroke: #ff0000"/>
     <use xlink:href="#me8956346a6" x="320.885429" y="130.536535" style="fill: #ff0000; stroke: #ff0000"/>
     <use xlink:href="#me8956346a6" x="326.009001" y="121.306648" style="fill: #ff0000; stroke: #ff0000"/>
     <use xlink:href="#me8956346a6" x="331.132573" y="108.852398" style="fill: #ff0000; stroke: #ff0000"/>
     <use xlink:href="#me8956346a6" x="336.256145" y="109.167983" style="fill: #ff0000; stroke: #ff0000"/>
     <use xlink:href="#me8956346a6" x="341.379717" y="110.647153" style="fill: #ff0000; stroke: #ff0000"/>
     <use xlink:href="#me8956346a6" x="346.503289" y="111.405131" style="fill: #ff0000; stroke: #ff0000"/>
     <use xlink:href="#me8956346a6" x="351.62686" y="123.974173" style="fill: #ff0000; stroke: #ff0000"/>
     <use xlink:href="#me8956346a6" x="356.750432" y="81.550119" style="fill: #ff0000; stroke: #ff0000"/>
     <use xlink:href="#me8956346a6" x="361.874004" y="107.441004" style="fill: #ff0000; stroke: #ff0000"/>
     <use xlink:href="#me8956346a6" x="366.997576" y="83.923874" style="fill: #ff0000; stroke: #ff0000"/>
     <use xlink:href="#me8956346a6" x="372.121148" y="83.358357" style="fill: #ff0000; stroke: #ff0000"/>
     <use xlink:href="#me8956346a6" x="377.24472" y="47.996245" style="fill: #ff0000; stroke: #ff0000"/>
     <use xlink:href="#me8956346a6" x="382.368291" y="87.524877" style="fill: #ff0000; stroke: #ff0000"/>
     <use xlink:href="#me8956346a6" x="387.491863" y="74.422546" style="fill: #ff0000; stroke: #ff0000"/>
     <use xlink:href="#me8956346a6" x="392.615435" y="75.806934" style="fill: #ff0000; stroke: #ff0000"/>
     <use xlink:href="#me8956346a6" x="397.739007" y="55.044991" style="fill: #ff0000; stroke: #ff0000"/>
     <use xlink:href="#me8956346a6" x="402.862579" y="70.35678" style="fill: #ff0000; stroke: #ff0000"/>
     <use xlink:href="#me8956346a6" x="407.986151" y="61.721965" style="fill: #ff0000; stroke: #ff0000"/>
     <use xlink:href="#me8956346a6" x="413.109723" y="78.908001" style="fill: #ff0000; stroke: #ff0000"/>
     <use xlink:href="#me8956346a6" x="418.233294" y="49.330977" style="fill: #ff0000; stroke: #ff0000"/>
     <use xlink:href="#me8956346a6" x="423.356866" y="46.459882" style="fill: #ff0000; stroke: #ff0000"/>
     <use xlink:href="#me8956346a6" x="428.480438" y="63.235247" style="fill: #ff0000; stroke: #ff0000"/>
     <use xlink:href="#me8956346a6" x="433.60401" y="62.398826" style="fill: #ff0000; stroke: #ff0000"/>
     <use xlink:href="#me8956346a6" x="438.727582" y="40.422652" style="fill: #ff0000; stroke: #ff0000"/>
     <use xlink:href="#me8956346a6" x="443.851154" y="28.763253" style="fill: #ff0000; stroke: #ff0000"/>
    </g>
   </g>
   <g id="patch_83">
    <path d="M 48.875 260.421875 
L 48.875 22.318125 
" style="fill: none; stroke: #000000; stroke-width: 0.8; stroke-linejoin: miter; stroke-linecap: square"/>
   </g>
   <g id="patch_84">
    <path d="M 464.806562 260.421875 
L 464.806562 22.318125 
" style="fill: none; stroke: #000000; stroke-width: 0.8; stroke-linejoin: miter; stroke-linecap: square"/>
   </g>
   <g id="patch_85">
    <path d="M 48.875 260.421875 
L 464.806562 260.421875 
" style="fill: none; stroke: #000000; stroke-width: 0.8; stroke-linejoin: miter; stroke-linecap: square"/>
   </g>
   <g id="patch_86">
    <path d="M 48.875 22.318125 
L 464.806562 22.318125 
" style="fill: none; stroke: #000000; stroke-width: 0.8; stroke-linejoin: miter; stroke-linecap: square"/>
   </g>
   <g id="legend_2">
    <g id="patch_87">
     <path d="M 55.875 255.421875 
L 708.148438 255.421875 
Q 710.148438 255.421875 710.148438 253.421875 
L 710.148438 239.34375 
Q 710.148438 237.34375 708.148438 237.34375 
L 55.875 237.34375 
Q 53.875 237.34375 53.875 239.34375 
L 53.875 253.421875 
Q 53.875 255.421875 55.875 255.421875 
z
" style="fill: #ffffff; opacity: 0.8; stroke: #cccccc; stroke-linejoin: miter"/>
    </g>
    <g id="line2d_27">
     <path d="M 57.875 245.842188 
L 67.875 245.842188 
L 77.875 245.842188 
" style="fill: none; stroke-dasharray: 1.5,2.475; stroke-dashoffset: 0; stroke: #ff0000; stroke-width: 1.5"/>
     <g>
      <use xlink:href="#me8956346a6" x="67.875" y="245.842188" style="fill: #ff0000; stroke: #ff0000"/>
     </g>
    </g>
    <g id="text_23">
     <!-- Nacestovaná vzdálenost ve srovnání s přejížděním vždy na nejbližší okruh až do reálného dějiště posledního závodu sezóny -->
     <g transform="translate(85.875 249.342188)scale(0.1 -0.1)">
      <defs>
       <path id="DejaVuSans-4e" d="M 628 4666 
L 1478 4666 
L 3547 763 
L 3547 4666 
L 4159 4666 
L 4159 0 
L 3309 0 
L 1241 3903 
L 1241 0 
L 628 0 
L 628 4666 
z
" transform="scale(0.015625)"/>
       <path id="DejaVuSans-63" d="M 3122 3366 
L 3122 2828 
Q 2878 2963 2633 3030 
Q 2388 3097 2138 3097 
Q 1578 3097 1268 2742 
Q 959 2388 959 1747 
Q 959 1106 1268 751 
Q 1578 397 2138 397 
Q 2388 397 2633 464 
Q 2878 531 3122 666 
L 3122 134 
Q 2881 22 2623 -34 
Q 2366 -91 2075 -91 
Q 1284 -91 818 406 
Q 353 903 353 1747 
Q 353 2603 823 3093 
Q 1294 3584 2113 3584 
Q 2378 3584 2631 3529 
Q 2884 3475 3122 3366 
z
" transform="scale(0.015625)"/>
       <path id="DejaVuSans-159" d="M 2631 2963 
Q 2534 3019 2420 3045 
Q 2306 3072 2169 3072 
Q 1681 3072 1420 2755 
Q 1159 2438 1159 1844 
L 1159 0 
L 581 0 
L 581 3500 
L 1159 3500 
L 1159 2956 
Q 1341 3275 1631 3429 
Q 1922 3584 2338 3584 
Q 2397 3584 2469 3576 
Q 2541 3569 2628 3553 
L 2631 2963 
z
M 1457 3944 
L 691 5119 
L 1126 5119 
L 1688 4353 
L 2251 5119 
L 2685 5119 
L 1919 3944 
L 1457 3944 
z
" transform="scale(0.015625)"/>
       <path id="DejaVuSans-6a" d="M 603 3500 
L 1178 3500 
L 1178 -63 
Q 1178 -731 923 -1031 
Q 669 -1331 103 -1331 
L -116 -1331 
L -116 -844 
L 38 -844 
Q 366 -844 484 -692 
Q 603 -541 603 -63 
L 603 3500 
z
M 603 4863 
L 1178 4863 
L 1178 4134 
L 603 4134 
L 603 4863 
z
" transform="scale(0.015625)"/>
       <path id="DejaVuSans-17e" d="M 353 3500 
L 3084 3500 
L 3084 2975 
L 922 459 
L 3084 459 
L 3084 0 
L 275 0 
L 275 525 
L 2438 3041 
L 353 3041 
L 353 3500 
z
M 1457 3944 
L 691 5119 
L 1126 5119 
L 1688 4353 
L 2251 5119 
L 2685 5119 
L 1919 3944 
L 1457 3944 
z
" transform="scale(0.015625)"/>
       <path id="DejaVuSans-79" d="M 2059 -325 
Q 1816 -950 1584 -1140 
Q 1353 -1331 966 -1331 
L 506 -1331 
L 506 -850 
L 844 -850 
Q 1081 -850 1212 -737 
Q 1344 -625 1503 -206 
L 1606 56 
L 191 3500 
L 800 3500 
L 1894 763 
L 2988 3500 
L 3597 3500 
L 2059 -325 
z
" transform="scale(0.015625)"/>
       <path id="DejaVuSans-62" d="M 3116 1747 
Q 3116 2381 2855 2742 
Q 2594 3103 2138 3103 
Q 1681 3103 1420 2742 
Q 1159 2381 1159 1747 
Q 1159 1113 1420 752 
Q 1681 391 2138 391 
Q 2594 391 2855 752 
Q 3116 1113 3116 1747 
z
M 1159 2969 
Q 1341 3281 1617 3432 
Q 1894 3584 2278 3584 
Q 2916 3584 3314 3078 
Q 3713 2572 3713 1747 
Q 3713 922 3314 415 
Q 2916 -91 2278 -91 
Q 1894 -91 1617 61 
Q 1341 213 1159 525 
L 1159 0 
L 581 0 
L 581 4863 
L 1159 4863 
L 1159 2969 
z
" transform="scale(0.015625)"/>
       <path id="DejaVuSans-e9" d="M 3597 1894 
L 3597 1613 
L 953 1613 
Q 991 1019 1311 708 
Q 1631 397 2203 397 
Q 2534 397 2845 478 
Q 3156 559 3463 722 
L 3463 178 
Q 3153 47 2828 -22 
Q 2503 -91 2169 -91 
Q 1331 -91 842 396 
Q 353 884 353 1716 
Q 353 2575 817 3079 
Q 1281 3584 2069 3584 
Q 2775 3584 3186 3129 
Q 3597 2675 3597 1894 
z
M 3022 2063 
Q 3016 2534 2758 2815 
Q 2500 3097 2075 3097 
Q 1594 3097 1305 2825 
Q 1016 2553 972 2059 
L 3022 2063 
z
M 2466 5119 
L 3088 5119 
L 2070 3944 
L 1591 3944 
L 2466 5119 
z
" transform="scale(0.015625)"/>
       <path id="DejaVuSans-f3" d="M 1959 3097 
Q 1497 3097 1228 2736 
Q 959 2375 959 1747 
Q 959 1119 1226 758 
Q 1494 397 1959 397 
Q 2419 397 2687 759 
Q 2956 1122 2956 1747 
Q 2956 2369 2687 2733 
Q 2419 3097 1959 3097 
z
M 1959 3584 
Q 2709 3584 3137 3096 
Q 3566 2609 3566 1747 
Q 3566 888 3137 398 
Q 2709 -91 1959 -91 
Q 1206 -91 779 398 
Q 353 888 353 1747 
Q 353 2609 779 3096 
Q 1206 3584 1959 3584 
z
M 2394 5119 
L 3016 5119 
L 1998 3944 
L 1519 3944 
L 2394 5119 
z
" transform="scale(0.015625)"/>
      </defs>
      <use xlink:href="#DejaVuSans-4e"/>
      <use xlink:href="#DejaVuSans-61" x="74.804688"/>
      <use xlink:href="#DejaVuSans-63" x="136.083984"/>
      <use xlink:href="#DejaVuSans-65" x="191.064453"/>
      <use xlink:href="#DejaVuSans-73" x="252.587891"/>
      <use xlink:href="#DejaVuSans-74" x="304.6875"/>
      <use xlink:href="#DejaVuSans-6f" x="343.896484"/>
      <use xlink:href="#DejaVuSans-76" x="405.078125"/>
      <use xlink:href="#DejaVuSans-61" x="464.257812"/>
      <use xlink:href="#DejaVuSans-6e" x="525.537109"/>
      <use xlink:href="#DejaVuSans-e1" x="588.916016"/>
      <use xlink:href="#DejaVuSans-20" x="650.195312"/>
      <use xlink:href="#DejaVuSans-76" x="681.982422"/>
      <use xlink:href="#DejaVuSans-7a" x="741.162109"/>
      <use xlink:href="#DejaVuSans-64" x="793.652344"/>
      <use xlink:href="#DejaVuSans-e1" x="857.128906"/>
      <use xlink:href="#DejaVuSans-6c" x="918.408203"/>
      <use xlink:href="#DejaVuSans-65" x="946.191406"/>
      <use xlink:href="#DejaVuSans-6e" x="1007.714844"/>
      <use xlink:href="#DejaVuSans-6f" x="1071.09375"/>
      <use xlink:href="#DejaVuSans-73" x="1132.275391"/>
      <use xlink:href="#DejaVuSans-74" x="1184.375"/>
      <use xlink:href="#DejaVuSans-20" x="1223.583984"/>
      <use xlink:href="#DejaVuSans-76" x="1255.371094"/>
      <use xlink:href="#DejaVuSans-65" x="1314.550781"/>
      <use xlink:href="#DejaVuSans-20" x="1376.074219"/>
      <use xlink:href="#DejaVuSans-73" x="1407.861328"/>
      <use xlink:href="#DejaVuSans-72" x="1459.960938"/>
      <use xlink:href="#DejaVuSans-6f" x="1498.824219"/>
      <use xlink:href="#DejaVuSans-76" x="1560.005859"/>
      <use xlink:href="#DejaVuSans-6e" x="1619.185547"/>
      <use xlink:href="#DejaVuSans-e1" x="1682.564453"/>
      <use xlink:href="#DejaVuSans-6e" x="1743.84375"/>
      <use xlink:href="#DejaVuSans-ed" x="1807.222656"/>
      <use xlink:href="#DejaVuSans-20" x="1835.005859"/>
      <use xlink:href="#DejaVuSans-73" x="1866.792969"/>
      <use xlink:href="#DejaVuSans-20" x="1918.892578"/>
      <use xlink:href="#DejaVuSans-70" x="1950.679688"/>
      <use xlink:href="#DejaVuSans-159" x="2014.15625"/>
      <use xlink:href="#DejaVuSans-65" x="2053.019531"/>
      <use xlink:href="#DejaVuSans-6a" x="2114.542969"/>
      <use xlink:href="#DejaVuSans-ed" x="2142.326172"/>
      <use xlink:href="#DejaVuSans-17e" x="2170.109375"/>
      <use xlink:href="#DejaVuSans-64" x="2222.599609"/>
      <use xlink:href="#DejaVuSans-11b" x="2286.076172"/>
      <use xlink:href="#DejaVuSans-6e" x="2347.599609"/>
      <use xlink:href="#DejaVuSans-ed" x="2410.978516"/>
      <use xlink:href="#DejaVuSans-6d" x="2438.761719"/>
      <use xlink:href="#DejaVuSans-20" x="2536.173828"/>
      <use xlink:href="#DejaVuSans-76" x="2567.960938"/>
      <use xlink:href="#DejaVuSans-17e" x="2627.140625"/>
      <use xlink:href="#DejaVuSans-64" x="2679.630859"/>
      <use xlink:href="#DejaVuSans-79" x="2743.107422"/>
      <use xlink:href="#DejaVuSans-20" x="2802.287109"/>
      <use xlink:href="#DejaVuSans-6e" x="2834.074219"/>
      <use xlink:href="#DejaVuSans-61" x="2897.453125"/>
      <use xlink:href="#DejaVuSans-20" x="2958.732422"/>
      <use xlink:href="#DejaVuSans-6e" x="2990.519531"/>
      <use xlink:href="#DejaVuSans-65" x="3053.898438"/>
      <use xlink:href="#DejaVuSans-6a" x="3115.421875"/>
      <use xlink:href="#DejaVuSans-62" x="3143.205078"/>
      <use xlink:href="#DejaVuSans-6c" x="3206.681641"/>
      <use xlink:href="#DejaVuSans-69" x="3234.464844"/>
      <use xlink:href="#DejaVuSans-17e" x="3262.248047"/>
      <use xlink:href="#DejaVuSans-161" x="3314.738281"/>
      <use xlink:href="#DejaVuSans-ed" x="3366.837891"/>
      <use xlink:href="#DejaVuSans-20" x="3394.621094"/>
      <use xlink:href="#DejaVuSans-6f" x="3426.408203"/>
      <use xlink:href="#DejaVuSans-6b" x="3487.589844"/>
      <use xlink:href="#DejaVuSans-72" x="3545.5"/>
      <use xlink:href="#DejaVuSans-75" x="3586.613281"/>
      <use xlink:href="#DejaVuSans-68" x="3649.992188"/>
      <use xlink:href="#DejaVuSans-20" x="3713.371094"/>
      <use xlink:href="#DejaVuSans-61" x="3745.158203"/>
      <use xlink:href="#DejaVuSans-17e" x="3806.4375"/>
      <use xlink:href="#DejaVuSans-20" x="3858.927734"/>
      <use xlink:href="#DejaVuSans-64" x="3890.714844"/>
      <use xlink:href="#DejaVuSans-6f" x="3954.191406"/>
      <use xlink:href="#DejaVuSans-20" x="4015.373047"/>
      <use xlink:href="#DejaVuSans-72" x="4047.160156"/>
      <use xlink:href="#DejaVuSans-65" x="4086.023438"/>
      <use xlink:href="#DejaVuSans-e1" x="4147.546875"/>
      <use xlink:href="#DejaVuSans-6c" x="4208.826172"/>
      <use xlink:href="#DejaVuSans-6e" x="4236.609375"/>
      <use xlink:href="#DejaVuSans-e9" x="4299.988281"/>
      <use xlink:href="#DejaVuSans-68" x="4361.511719"/>
      <use xlink:href="#DejaVuSans-6f" x="4424.890625"/>
      <use xlink:href="#DejaVuSans-20" x="4486.072266"/>
      <use xlink:href="#DejaVuSans-64" x="4517.859375"/>
      <use xlink:href="#DejaVuSans-11b" x="4581.335938"/>
      <use xlink:href="#DejaVuSans-6a" x="4642.859375"/>
      <use xlink:href="#DejaVuSans-69" x="4670.642578"/>
      <use xlink:href="#DejaVuSans-161" x="4698.425781"/>
      <use xlink:href="#DejaVuSans-74" x="4750.525391"/>
      <use xlink:href="#DejaVuSans-11b" x="4789.734375"/>
      <use xlink:href="#DejaVuSans-20" x="4851.257812"/>
      <use xlink:href="#DejaVuSans-70" x="4883.044922"/>
      <use xlink:href="#DejaVuSans-6f" x="4946.521484"/>
      <use xlink:href="#DejaVuSans-73" x="5007.703125"/>
      <use xlink:href="#DejaVuSans-6c" x="5059.802734"/>
      <use xlink:href="#DejaVuSans-65" x="5087.585938"/>
      <use xlink:href="#DejaVuSans-64" x="5149.109375"/>
      <use xlink:href="#DejaVuSans-6e" x="5212.585938"/>
      <use xlink:href="#DejaVuSans-ed" x="5275.964844"/>
      <use xlink:href="#DejaVuSans-68" x="5303.748047"/>
      <use xlink:href="#DejaVuSans-6f" x="5367.126953"/>
      <use xlink:href="#DejaVuSans-20" x="5428.308594"/>
      <use xlink:href="#DejaVuSans-7a" x="5460.095703"/>
      <use xlink:href="#DejaVuSans-e1" x="5512.585938"/>
      <use xlink:href="#DejaVuSans-76" x="5573.865234"/>
      <use xlink:href="#DejaVuSans-6f" x="5633.044922"/>
      <use xlink:href="#DejaVuSans-64" x="5694.226562"/>
      <use xlink:href="#DejaVuSans-75" x="5757.703125"/>
      <use xlink:href="#DejaVuSans-20" x="5821.082031"/>
      <use xlink:href="#DejaVuSans-73" x="5852.869141"/>
      <use xlink:href="#DejaVuSans-65" x="5904.96875"/>
      <use xlink:href="#DejaVuSans-7a" x="5966.492188"/>
      <use xlink:href="#DejaVuSans-f3" x="6018.982422"/>
      <use xlink:href="#DejaVuSans-6e" x="6080.164062"/>
      <use xlink:href="#DejaVuSans-79" x="6143.542969"/>
     </g>
    </g>
   </g>
  </g>
 </g>
 <defs>
  <clipPath id="pb60dd37dba">
   <rect x="48.875" y="22.318125" width="415.931562" height="238.10375"/>
  </clipPath>
 </defs>
</svg>
